<?xml version="1.0" encoding="UTF-8" standalone="no"?><svg xmlns="http://www.w3.org/2000/svg" xmlns:xlink="http://www.w3.org/1999/xlink" contentScriptType="application/ecmascript" contentStyleType="text/css" height="396px" preserveAspectRatio="none" style="width:687px;height:396px;" version="1.1" viewBox="0 0 687 396" width="687px" zoomAndPan="magnify"><defs><filter height="300%" id="f14fx5vbucl9s" width="300%" x="-1" y="-1"><feGaussianBlur result="blurOut" stdDeviation="2.0"/><feColorMatrix in="blurOut" result="blurOut2" type="matrix" values="0 0 0 0 0 0 0 0 0 0 0 0 0 0 0 0 0 0 .4 0"/><feOffset dx="4.0" dy="4.0" in="blurOut2" result="blurOut3"/><feBlend in="SourceGraphic" in2="blurOut3" mode="normal"/></filter></defs><g><!--MD5=[bea9183264cba62b8c9a5e1224027178]
cluster Aplicação--><rect fill="#FFFFFF" filter="url(#f14fx5vbucl9s)" height="272.9996" style="stroke: #000000; stroke-width: 1.5;" width="417" x="134" y="23.859"/><text fill="#000000" font-family="sans-serif" font-size="14" font-weight="bold" lengthAdjust="spacingAndGlyphs" textLength="75" x="305" y="38.8541">Aplicação</text><ellipse cx="190.7487" cy="73.8826" fill="#FEFECE" filter="url(#f14fx5vbucl9s)" rx="27.7487" ry="14.5236" style="stroke: #A80036; stroke-width: 1.5;"/><text fill="#000000" font-family="sans-serif" font-size="14" lengthAdjust="spacingAndGlyphs" textLength="35" x="173.2487" y="78.5311">Inicio</text><ellipse cx="190.4558" cy="137.8826" fill="#FEFECE" filter="url(#f14fx5vbucl9s)" rx="28.4558" ry="14.5236" style="stroke: #A80036; stroke-width: 1.5;"/><text fill="#000000" font-family="sans-serif" font-size="14" lengthAdjust="spacingAndGlyphs" textLength="36" x="172.4558" y="142.5311">Envia</text><ellipse cx="413.1802" cy="188.695" fill="#FEFECE" filter="url(#f14fx5vbucl9s)" rx="122.1802" ry="26.836" style="stroke: #A80036; stroke-width: 1.5;"/><text fill="#000000" font-family="sans-serif" font-size="14" lengthAdjust="spacingAndGlyphs" textLength="224" x="301.1802" y="193.3435">Sinalização recebimento do Item</text><ellipse cx="413.2229" cy="105.9036" fill="#FEFECE" filter="url(#f14fx5vbucl9s)" rx="93.2229" ry="21.0446" style="stroke: #A80036; stroke-width: 1.5;"/><text fill="#000000" font-family="sans-serif" font-size="14" lengthAdjust="spacingAndGlyphs" textLength="161" x="332.7229" y="110.552">Formulário de Avaliação</text><ellipse cx="190.4767" cy="201.8826" fill="#FEFECE" filter="url(#f14fx5vbucl9s)" rx="40.4767" ry="14.5236" style="stroke: #A80036; stroke-width: 1.5;"/><text fill="#000000" font-family="sans-serif" font-size="14" lengthAdjust="spacingAndGlyphs" textLength="53" x="163.9767" y="206.5311">Atualiza</text><ellipse cx="413.033" cy="265.8826" fill="#FEFECE" filter="url(#f14fx5vbucl9s)" rx="56.033" ry="14.5236" style="stroke: #A80036; stroke-width: 1.5;"/><text fill="#000000" font-family="sans-serif" font-size="14" lengthAdjust="spacingAndGlyphs" textLength="75" x="375.533" y="270.5311">Reputação</text><ellipse cx="190.6482" cy="265.8826" fill="#FEFECE" filter="url(#f14fx5vbucl9s)" rx="37.6482" ry="14.5236" style="stroke: #A80036; stroke-width: 1.5;"/><text fill="#000000" font-family="sans-serif" font-size="14" lengthAdjust="spacingAndGlyphs" textLength="49" x="166.1482" y="270.5311">Publica</text><!--MD5=[a10387ad8e858299a22bf8f94b5aa682]
entity Consumidor--><ellipse cx="48" cy="42.359" fill="#FEFECE" filter="url(#f14fx5vbucl9s)" rx="8" ry="8" style="stroke: #A80036; stroke-width: 2.0;"/><path d="M48,50.359 L48,77.359 M35,58.359 L61,58.359 M48,77.359 L35,92.359 M48,77.359 L61,92.359 " fill="none" filter="url(#f14fx5vbucl9s)" style="stroke: #A80036; stroke-width: 2.0;"/><text fill="#000000" font-family="sans-serif" font-size="14" lengthAdjust="spacingAndGlyphs" textLength="84" x="6" y="112.3541">Consumidor</text><!--MD5=[eb4e1fff4b11d66712e4b08b84d12274]
entity Fornecedor--><ellipse cx="635" cy="234.359" fill="#FEFECE" filter="url(#f14fx5vbucl9s)" rx="8" ry="8" style="stroke: #A80036; stroke-width: 2.0;"/><path d="M635,242.359 L635,269.359 M622,250.359 L648,250.359 M635,269.359 L622,284.359 M635,269.359 L648,284.359 " fill="none" filter="url(#f14fx5vbucl9s)" style="stroke: #A80036; stroke-width: 2.0;"/><text fill="#000000" font-family="sans-serif" font-size="14" lengthAdjust="spacingAndGlyphs" textLength="80" x="595" y="304.3541">Fornecedor</text><!--MD5=[a111db04efb593016a1ed2acace679c4]
entity Servidor--><ellipse cx="48" cy="234.359" fill="#FEFECE" filter="url(#f14fx5vbucl9s)" rx="8" ry="8" style="stroke: #A80036; stroke-width: 2.0;"/><path d="M48,242.359 L48,269.359 M35,250.359 L61,250.359 M48,269.359 L35,284.359 M48,269.359 L61,284.359 " fill="none" filter="url(#f14fx5vbucl9s)" style="stroke: #A80036; stroke-width: 2.0;"/><text fill="#000000" font-family="sans-serif" font-size="14" lengthAdjust="spacingAndGlyphs" textLength="56" x="20" y="304.3541">Servidor</text><!--MD5=[c553821e2f8665107e693d87f908cc04]
reverse link Consumidor to Inicio--><path d="M95.0449,73.859 C117.514,73.859 143.747,73.859 162.857,73.859 " fill="none" id="Consumidor&lt;-Inicio" style="stroke: #A80036; stroke-width: 1.0;"/><polygon fill="#A80036" points="90.0161,73.859,99.0161,77.859,95.0161,73.859,99.0161,69.859,90.0161,73.859" style="stroke: #A80036; stroke-width: 1.0;"/><!--MD5=[2fda2a0a29386f5c793e810ad58f0731]
link Consumidor to Envia--><path d="M90.0161,92.542 C113.862,103.404 143.176,116.757 163.787,126.146 " fill="none" id="Consumidor-&gt;Envia" style="stroke: #A80036; stroke-width: 1.0;"/><polygon fill="#A80036" points="168.569,128.324,162.0372,120.9527,164.0189,126.2511,158.7206,128.2329,168.569,128.324" style="stroke: #A80036; stroke-width: 1.0;"/><!--MD5=[bc8abe68168646264ddc5a6fbdf7dff7]
link Envia to Sinalização recebimento do Item--><path d="M216.794,143.709 C242.668,149.694 284.383,159.342 322.621,168.186 " fill="none" id="Envia-&gt;Sinalização recebimento do Item" style="stroke: #A80036; stroke-width: 1.0;"/><polygon fill="#A80036" points="327.749,169.372,319.8823,163.4462,322.8777,168.2449,318.079,171.2402,327.749,169.372" style="stroke: #A80036; stroke-width: 1.0;"/><!--MD5=[4cf0bdcaefff7bbd9a02638e30f72120]
link Sinalização recebimento do Item to Servidor--><path d="M331.207,208.964 C316.66,215.218 302.49,223.341 291,233.859 C245.247,275.737 283.446,326.7444 231,359.8586 C191.541,384.7733 168.177,379.8305 126,359.8586 C104.552,349.7025 87.0854,330.3214 74.2426,311.7837 " fill="none" id="Sinalização recebimento do Item-&gt;Servidor" style="stroke: #A80036; stroke-width: 1.0;"/><polygon fill="#A80036" points="71.4083,307.5964,73.1407,317.2917,74.211,311.737,79.7657,312.8073,71.4083,307.5964" style="stroke: #A80036; stroke-width: 1.0;"/><!--MD5=[7a524909f8d8cbfa092c7a7b14a0d16e]
link Servidor to Envia--><path d="M76.321,224.165 C89.7336,205.903 107.073,185.189 126,169.859 C136.925,161.01 150.696,153.701 162.619,148.314 " fill="none" id="Servidor-&gt;Envia" style="stroke: #A80036; stroke-width: 1.0;"/><polygon fill="#A80036" points="167.259,146.271,157.4102,146.2361,162.6828,148.2855,160.6334,153.5581,167.259,146.271" style="stroke: #A80036; stroke-width: 1.0;"/><!--MD5=[0490944913e9773f742593ec8ef352ea]
link Envia to Formulário de Avaliação--><path d="M218.097,133.999 C245.503,130.021 289.638,123.616 328.882,117.921 " fill="none" id="Envia-&gt;Formulário de Avaliação" style="stroke: #A80036; stroke-width: 1.0;"/><polygon fill="#A80036" points="334.136,117.159,324.6546,114.4938,329.1879,117.8775,325.8042,122.4108,334.136,117.159" style="stroke: #A80036; stroke-width: 1.0;"/><!--MD5=[9ceaf8e22fc4b01fa1942cbb0046abc2]
link Formulário de Avaliação to Servidor--><path d="M337.937,118.451 C320.924,124.214 304.027,132.615 291,144.859 C237.777,194.883 291.344,256.704 231,297.8586 C185.664,328.7771 119.661,304.0934 80.8476,284.3061 " fill="none" id="Formulário de Avaliação-&gt;Servidor" style="stroke: #A80036; stroke-width: 1.0;"/><polygon fill="#A80036" points="76.2523,281.9214,82.3981,289.6174,80.6903,284.2245,86.0832,282.5167,76.2523,281.9214" style="stroke: #A80036; stroke-width: 1.0;"/><!--MD5=[7f3e44f5391e11bf6d45f97ff7909db8]
link Formulário de Avaliação to Consumidor--><path d="M371.377,86.995 C335.379,71.383 280.932,50.426 231,41.859 C185.006,33.966 171.765,32.728 126,41.859 C115.63,43.928 104.9084,47.421 94.8806,51.358 " fill="none" id="Formulário de Avaliação-&gt;Consumidor" style="stroke: #A80036; stroke-width: 1.0;"/><polygon fill="#A80036" points="90.0181,53.322,99.8612,53.66,94.6542,51.4493,96.8648,46.2423,90.0181,53.322" style="stroke: #A80036; stroke-width: 1.0;"/><!--MD5=[960bd2911a463871074fbd57752ae409]
link Servidor to Atualiza--><path d="M76.0898,253.519 C100.1618,242.554 135.273,226.56 160.037,215.279 " fill="none" id="Servidor-&gt;Atualiza" style="stroke: #A80036; stroke-width: 1.0;"/><polygon fill="#A80036" points="164.846,213.089,154.9976,213.1801,160.2959,215.1619,158.3142,220.4603,164.846,213.089" style="stroke: #A80036; stroke-width: 1.0;"/><!--MD5=[722e9e9aacf6d724571639fa96467d21]
link Atualiza to Reputação--><path d="M220.546,211.645 C240.324,218.199 267.142,226.873 291,233.859 C316.01,241.182 344.142,248.667 366.983,254.554 " fill="none" id="Atualiza-&gt;Reputação" style="stroke: #A80036; stroke-width: 1.0;"/><polygon fill="#A80036" points="372.071,255.862,364.3512,249.746,367.2286,254.6164,362.3583,257.4938,372.071,255.862" style="stroke: #A80036; stroke-width: 1.0;"/><!--MD5=[d5b282786e031deddbcdba5db1176815]
link Servidor to Publica--><path d="M76.0898,265.859 C96.4027,265.859 124.576,265.859 147.76,265.859 " fill="none" id="Servidor-&gt;Publica" style="stroke: #A80036; stroke-width: 1.0;"/><polygon fill="#A80036" points="152.929,265.859,143.929,261.859,147.929,265.859,143.929,269.859,152.929,265.859" style="stroke: #A80036; stroke-width: 1.0;"/><!--MD5=[6e787e7465db7e3fac7021738a55baf4]
link Publica to Reputação--><path d="M228.407,265.859 C261.964,265.859 312.111,265.859 351.52,265.859 " fill="none" id="Publica-&gt;Reputação" style="stroke: #A80036; stroke-width: 1.0;"/><polygon fill="#A80036" points="356.761,265.859,347.761,261.859,351.761,265.859,347.761,269.859,356.761,265.859" style="stroke: #A80036; stroke-width: 1.0;"/><!--MD5=[2c4e3bbcb798bf79a9c8e4e71140042b]
link Reputação to Fornecedor--><path d="M469.231,265.859 C506.475,265.859 554.965,265.859 589.682,265.859 " fill="none" id="Reputação-&gt;Fornecedor" style="stroke: #A80036; stroke-width: 1.0;"/><polygon fill="#A80036" points="594.702,265.859,585.702,261.859,589.702,265.859,585.702,269.859,594.702,265.859" style="stroke: #A80036; stroke-width: 1.0;"/><!--MD5=[bc85ee18a8350d8642ef6e71710062f0]
@startuml
left to right direction
skinparam packageStyle rectangle
actor Consumidor
actor Fornecedor
actor Servidor

rectangle Aplicação {
  Consumidor <- - (Inicio)
  Consumidor - -> (Envia)
  (Envia) - -> (Sinalização recebimento do Item)
  (Sinalização recebimento do Item) - -> Servidor
  (Servidor) - -> (Envia)
  (Envia) - -> (Formulário de Avaliação)
  (Formulário de Avaliação)  - -> (Servidor) 
  (Formulário de Avaliação) - -> Consumidor
  Servidor - -> (Atualiza)
  (Atualiza) - -> (Reputação)
  Servidor - -> (Publica)
  (Publica) - -> (Reputação)
  (Reputação) - -> Fornecedor 
  
}
@enduml

PlantUML version 1.2019.10(Fri Sep 13 20:53:03 UTC 2019)
(GPL source distribution)
Java Runtime: Java(TM) SE Runtime Environment
JVM: Java HotSpot(TM) 64-Bit Server VM
Java Version: 1.7.0_25-b15
Operating System: Linux
Default Encoding: UTF-8
Language: en
Country: US
--></g></svg>