<?xml version="1.0" encoding="UTF-8" standalone="no"?><svg xmlns="http://www.w3.org/2000/svg" xmlns:xlink="http://www.w3.org/1999/xlink" contentScriptType="application/ecmascript" contentStyleType="text/css" height="396px" preserveAspectRatio="none" style="width:656px;height:396px;" version="1.1" viewBox="0 0 656 396" width="656px" zoomAndPan="magnify"><defs><filter height="300%" id="f48ujz55ap53k" width="300%" x="-1" y="-1"><feGaussianBlur result="blurOut" stdDeviation="2.0"/><feColorMatrix in="blurOut" result="blurOut2" type="matrix" values="0 0 0 0 0 0 0 0 0 0 0 0 0 0 0 0 0 0 .4 0"/><feOffset dx="4.0" dy="4.0" in="blurOut2" result="blurOut3"/><feBlend in="SourceGraphic" in2="blurOut3" mode="normal"/></filter></defs><g><!--MD5=[bea9183264cba62b8c9a5e1224027178]
cluster Aplicação--><rect fill="#FFFFFF" filter="url(#f48ujz55ap53k)" height="273" style="stroke: #000000; stroke-width: 1.5;" width="386" x="130" y="23.774"/><text fill="#000000" font-family="sans-serif" font-size="14" font-weight="bold" lengthAdjust="spacingAndGlyphs" textLength="75" x="285.5" y="38.7691">Aplicação</text><ellipse cx="186.7487" cy="73.7976" fill="#FEFECE" filter="url(#f48ujz55ap53k)" rx="27.7487" ry="14.5236" style="stroke: #A80036; stroke-width: 1.5;"/><text fill="#000000" font-family="sans-serif" font-size="14" lengthAdjust="spacingAndGlyphs" textLength="35" x="169.2487" y="78.4461">Inicio</text><ellipse cx="186.4558" cy="137.7976" fill="#FEFECE" filter="url(#f48ujz55ap53k)" rx="28.4558" ry="14.5236" style="stroke: #A80036; stroke-width: 1.5;"/><text fill="#000000" font-family="sans-serif" font-size="14" lengthAdjust="spacingAndGlyphs" textLength="36" x="168.4558" y="142.4461">Envia</text><ellipse cx="393.3679" cy="192.9476" fill="#FEFECE" filter="url(#f48ujz55ap53k)" rx="106.3679" ry="23.6736" style="stroke: #A80036; stroke-width: 1.5;"/><text fill="#000000" font-family="sans-serif" font-size="14" lengthAdjust="spacingAndGlyphs" textLength="190" x="298.3679" y="197.596">Sinalização entrega do Item</text><ellipse cx="393.7229" cy="112.8186" fill="#FEFECE" filter="url(#f48ujz55ap53k)" rx="93.2229" ry="21.0446" style="stroke: #A80036; stroke-width: 1.5;"/><text fill="#000000" font-family="sans-serif" font-size="14" lengthAdjust="spacingAndGlyphs" textLength="161" x="313.2229" y="117.467">Formulário de Avaliação</text><ellipse cx="186.4767" cy="201.7976" fill="#FEFECE" filter="url(#f48ujz55ap53k)" rx="40.4767" ry="14.5236" style="stroke: #A80036; stroke-width: 1.5;"/><text fill="#000000" font-family="sans-serif" font-size="14" lengthAdjust="spacingAndGlyphs" textLength="53" x="159.9767" y="206.4461">Atualiza</text><ellipse cx="393.533" cy="265.7976" fill="#FEFECE" filter="url(#f48ujz55ap53k)" rx="56.033" ry="14.5236" style="stroke: #A80036; stroke-width: 1.5;"/><text fill="#000000" font-family="sans-serif" font-size="14" lengthAdjust="spacingAndGlyphs" textLength="75" x="356.033" y="270.4461">Reputação</text><ellipse cx="186.6482" cy="265.7976" fill="#FEFECE" filter="url(#f48ujz55ap53k)" rx="37.6482" ry="14.5236" style="stroke: #A80036; stroke-width: 1.5;"/><text fill="#000000" font-family="sans-serif" font-size="14" lengthAdjust="spacingAndGlyphs" textLength="49" x="162.1482" y="270.4461">Publica</text><!--MD5=[eb4e1fff4b11d66712e4b08b84d12274]
entity Fornecedor--><ellipse cx="46" cy="42.274" fill="#FEFECE" filter="url(#f48ujz55ap53k)" rx="8" ry="8" style="stroke: #A80036; stroke-width: 2.0;"/><path d="M46,50.274 L46,77.274 M33,58.274 L59,58.274 M46,77.274 L33,92.274 M46,77.274 L59,92.274 " fill="none" filter="url(#f48ujz55ap53k)" style="stroke: #A80036; stroke-width: 2.0;"/><text fill="#000000" font-family="sans-serif" font-size="14" lengthAdjust="spacingAndGlyphs" textLength="80" x="6" y="112.2691">Fornecedor</text><!--MD5=[a10387ad8e858299a22bf8f94b5aa682]
entity Consumidor--><ellipse cx="602" cy="234.274" fill="#FEFECE" filter="url(#f48ujz55ap53k)" rx="8" ry="8" style="stroke: #A80036; stroke-width: 2.0;"/><path d="M602,242.274 L602,269.274 M589,250.274 L615,250.274 M602,269.274 L589,284.274 M602,269.274 L615,284.274 " fill="none" filter="url(#f48ujz55ap53k)" style="stroke: #A80036; stroke-width: 2.0;"/><text fill="#000000" font-family="sans-serif" font-size="14" lengthAdjust="spacingAndGlyphs" textLength="84" x="560" y="304.2691">Consumidor</text><!--MD5=[a111db04efb593016a1ed2acace679c4]
entity Servidor--><ellipse cx="46" cy="234.274" fill="#FEFECE" filter="url(#f48ujz55ap53k)" rx="8" ry="8" style="stroke: #A80036; stroke-width: 2.0;"/><path d="M46,242.274 L46,269.274 M33,250.274 L59,250.274 M46,269.274 L33,284.274 M46,269.274 L59,284.274 " fill="none" filter="url(#f48ujz55ap53k)" style="stroke: #A80036; stroke-width: 2.0;"/><text fill="#000000" font-family="sans-serif" font-size="14" lengthAdjust="spacingAndGlyphs" textLength="56" x="18" y="304.2691">Servidor</text><!--MD5=[cb9b35b1d0cea9b02ebf81c2562f2d8a]
reverse link Fornecedor to Inicio--><path d="M91.5681,73.774 C113.731,73.774 139.775,73.774 158.811,73.774 " fill="none" id="Fornecedor&lt;-Inicio" style="stroke: #A80036; stroke-width: 1.0;"/><polygon fill="#A80036" points="86.3181,73.774,95.3181,77.774,91.3181,73.774,95.3181,69.774,86.3181,73.774" style="stroke: #A80036; stroke-width: 1.0;"/><!--MD5=[91943322b6a0153b9d562354544c651c]
link Fornecedor to Envia--><path d="M86.3181,91.943 C110.01,102.891 139.491,116.513 160.129,126.05 " fill="none" id="Fornecedor-&gt;Envia" style="stroke: #A80036; stroke-width: 1.0;"/><polygon fill="#A80036" points="164.915,128.262,158.4228,120.8558,160.3761,126.1647,155.0672,128.118,164.915,128.262" style="stroke: #A80036; stroke-width: 1.0;"/><!--MD5=[220f5c32960da79c0b17f5a5776dc062]
link Envia to Sinalização entrega do Item--><path d="M212.228,144.408 C238.828,151.545 282.38,163.23 320.013,173.326 " fill="none" id="Envia-&gt;Sinalização entrega do Item" style="stroke: #A80036; stroke-width: 1.0;"/><polygon fill="#A80036" points="325.044,174.676,317.3882,168.4801,320.2148,173.3801,315.3148,176.2068,325.044,174.676" style="stroke: #A80036; stroke-width: 1.0;"/><!--MD5=[00abf03f17185c810c85191e265cf2e2]
link Sinalização entrega do Item to Servidor--><path d="M323.956,210.708 C310.605,216.483 297.51,224.012 287,233.774 C241.554,275.985 279.446,326.6597 227,359.774 C187.541,384.6886 164.048,380.0168 122,359.774 C100.8391,349.5866 83.7934,330.2017 71.3324,311.6695 " fill="none" id="Sinalização entrega do Item-&gt;Servidor" style="stroke: #A80036; stroke-width: 1.0;"/><polygon fill="#A80036" points="68.5839,307.4837,70.18,317.2024,71.3282,311.6633,76.8673,312.8115,68.5839,307.4837" style="stroke: #A80036; stroke-width: 1.0;"/><!--MD5=[7a524909f8d8cbfa092c7a7b14a0d16e]
link Servidor to Envia--><path d="M73.4239,224.048 C86.4502,205.779 103.3615,185.069 122,169.774 C132.784,160.925 146.42,153.653 158.289,148.29 " fill="none" id="Servidor-&gt;Envia" style="stroke: #A80036; stroke-width: 1.0;"/><polygon fill="#A80036" points="162.911,146.256,153.0622,146.22,158.3346,148.27,156.2846,153.5423,162.911,146.256" style="stroke: #A80036; stroke-width: 1.0;"/><!--MD5=[0490944913e9773f742593ec8ef352ea]
link Envia to Formulário de Avaliação--><path d="M214.3,134.506 C237.686,131.654 272.949,127.353 305.951,123.329 " fill="none" id="Envia-&gt;Formulário de Avaliação" style="stroke: #A80036; stroke-width: 1.0;"/><polygon fill="#A80036" points="311.226,122.685,301.8077,119.8048,306.2628,123.2908,302.7769,127.7459,311.226,122.685" style="stroke: #A80036; stroke-width: 1.0;"/><!--MD5=[9ceaf8e22fc4b01fa1942cbb0046abc2]
link Formulário de Avaliação to Servidor--><path d="M326.861,127.563 C312.399,133.249 298.102,141.063 287,151.774 C236.512,200.484 285.277,258.717 227,297.774 C182.028,327.9139 117.077,303.6853 78.7348,284.1572 " fill="none" id="Formulário de Avaliação-&gt;Servidor" style="stroke: #A80036; stroke-width: 1.0;"/><polygon fill="#A80036" points="74.1939,281.803,80.3427,289.4967,78.6328,284.1044,84.025,282.3945,74.1939,281.803" style="stroke: #A80036; stroke-width: 1.0;"/><!--MD5=[341acae93a78e81f291bcc843a291d5c]
link Formulário de Avaliação to Fornecedor--><path d="M358.339,93.23 C325.781,75.807 274.776,51.589 227,41.774 C181.288,32.383 167.721,32.428 122,41.774 C111.63,43.894 100.9204,47.505 90.9536,51.555 " fill="none" id="Formulário de Avaliação-&gt;Fornecedor" style="stroke: #A80036; stroke-width: 1.0;"/><polygon fill="#A80036" points="86.1253,53.574,95.9717,53.7921,90.7382,51.645,92.8853,46.4114,86.1253,53.574" style="stroke: #A80036; stroke-width: 1.0;"/><!--MD5=[960bd2911a463871074fbd57752ae409]
link Servidor to Atualiza--><path d="M74.033,253.282 C97.6498,242.369 131.86,226.561 156.141,215.341 " fill="none" id="Servidor-&gt;Atualiza" style="stroke: #A80036; stroke-width: 1.0;"/><polygon fill="#A80036" points="160.859,213.161,151.0112,213.3038,156.3199,215.2577,154.366,220.5664,160.859,213.161" style="stroke: #A80036; stroke-width: 1.0;"/><!--MD5=[722e9e9aacf6d724571639fa96467d21]
link Atualiza to Reputação--><path d="M217.065,211.425 C236.835,217.843 263.445,226.414 287,233.774 C308.052,240.352 331.528,247.491 350.98,253.355 " fill="none" id="Atualiza-&gt;Reputação" style="stroke: #A80036; stroke-width: 1.0;"/><polygon fill="#A80036" points="355.835,254.817,348.3705,248.392,351.0473,253.3754,346.0639,256.0523,355.835,254.817" style="stroke: #A80036; stroke-width: 1.0;"/><!--MD5=[d5b282786e031deddbcdba5db1176815]
link Servidor to Publica--><path d="M74.033,265.774 C93.8668,265.774 121.172,265.774 143.793,265.774 " fill="none" id="Servidor-&gt;Publica" style="stroke: #A80036; stroke-width: 1.0;"/><polygon fill="#A80036" points="148.84,265.774,139.84,261.774,143.84,265.774,139.84,269.774,148.84,265.774" style="stroke: #A80036; stroke-width: 1.0;"/><!--MD5=[6e787e7465db7e3fac7021738a55baf4]
link Publica to Reputação--><path d="M224.15,265.774 C254.117,265.774 297.105,265.774 332.141,265.774 " fill="none" id="Publica-&gt;Reputação" style="stroke: #A80036; stroke-width: 1.0;"/><polygon fill="#A80036" points="337.25,265.774,328.25,261.774,332.25,265.774,328.25,269.774,337.25,265.774" style="stroke: #A80036; stroke-width: 1.0;"/><!--MD5=[860c0cf84e2fb2c87c76ea3229e21e0d]
link Reputação to Consumidor--><path d="M449.567,265.774 C482.321,265.774 523.413,265.774 554.525,265.774 " fill="none" id="Reputação-&gt;Consumidor" style="stroke: #A80036; stroke-width: 1.0;"/><polygon fill="#A80036" points="559.821,265.774,550.821,261.774,554.821,265.774,550.821,269.774,559.821,265.774" style="stroke: #A80036; stroke-width: 1.0;"/><!--MD5=[8c40fda23757a6b7b8b6d46cd679330d]
@startuml
left to right direction
skinparam packageStyle rectangle
actor Fornecedor
actor Consumidor
actor Servidor

rectangle Aplicação {
  Fornecedor <- - (Inicio)
  Fornecedor - -> (Envia)
  (Envia) - -> (Sinalização entrega do Item)
  (Sinalização entrega do Item) - -> Servidor
  (Servidor) - -> (Envia)
  (Envia) - -> (Formulário de Avaliação)
  (Formulário de Avaliação)  - -> (Servidor) 
  (Formulário de Avaliação) - -> Fornecedor
  Servidor - -> (Atualiza)
  (Atualiza) - -> (Reputação)
  Servidor - -> (Publica)
  (Publica) - -> (Reputação)
  (Reputação) - -> Consumidor 
  
}
@enduml

PlantUML version 1.2019.10(Fri Sep 13 20:53:03 UTC 2019)
(GPL source distribution)
Java Runtime: Java(TM) SE Runtime Environment
JVM: Java HotSpot(TM) 64-Bit Server VM
Java Version: 1.7.0_25-b15
Operating System: Linux
Default Encoding: UTF-8
Language: en
Country: US
--></g></svg>