<?xml version="1.0" encoding="UTF-8" standalone="no"?><svg xmlns="http://www.w3.org/2000/svg" xmlns:xlink="http://www.w3.org/1999/xlink" contentScriptType="application/ecmascript" contentStyleType="text/css" height="428px" preserveAspectRatio="none" style="width:453px;height:428px;" version="1.1" viewBox="0 0 453 428" width="453px" zoomAndPan="magnify"><defs><filter height="300%" id="f1uayzqq4xejuw" width="300%" x="-1" y="-1"><feGaussianBlur result="blurOut" stdDeviation="2.0"/><feColorMatrix in="blurOut" result="blurOut2" type="matrix" values="0 0 0 0 0 0 0 0 0 0 0 0 0 0 0 0 0 0 .4 0"/><feOffset dx="4.0" dy="4.0" in="blurOut2" result="blurOut3"/><feBlend in="SourceGraphic" in2="blurOut3" mode="normal"/></filter></defs><g><!--MD5=[bea9183264cba62b8c9a5e1224027178]
cluster Aplicação--><rect fill="#FFFFFF" filter="url(#f1uayzqq4xejuw)" height="279" style="stroke: #000000; stroke-width: 1.5;" width="307" x="134" y="107.383"/><text fill="#000000" font-family="sans-serif" font-size="14" font-weight="bold" lengthAdjust="spacingAndGlyphs" textLength="75" x="250" y="122.3781">Aplicação</text><ellipse cx="225.7487" cy="157.4066" fill="#FEFECE" filter="url(#f1uayzqq4xejuw)" rx="27.7487" ry="14.5236" style="stroke: #A80036; stroke-width: 1.5;"/><text fill="#000000" font-family="sans-serif" font-size="14" lengthAdjust="spacingAndGlyphs" textLength="35" x="208.2487" y="162.0551">Inicio</text><ellipse cx="225.5253" cy="224.3881" fill="#FEFECE" filter="url(#f1uayzqq4xejuw)" rx="75.5253" ry="17.5051" style="stroke: #A80036; stroke-width: 1.5;"/><text fill="#000000" font-family="sans-serif" font-size="14" lengthAdjust="spacingAndGlyphs" textLength="120" x="165.5253" y="229.0365">Sinaliza interesse</text><ellipse cx="401.2132" cy="290.4066" fill="#FEFECE" filter="url(#f1uayzqq4xejuw)" rx="24.2132" ry="14.5236" style="stroke: #A80036; stroke-width: 1.5;"/><text fill="#000000" font-family="sans-serif" font-size="14" lengthAdjust="spacingAndGlyphs" textLength="30" x="386.2132" y="295.0551">item</text><ellipse cx="225.3553" cy="355.4066" fill="#FEFECE" filter="url(#f1uayzqq4xejuw)" rx="38.3553" ry="14.5236" style="stroke: #A80036; stroke-width: 1.5;"/><text fill="#000000" font-family="sans-serif" font-size="14" lengthAdjust="spacingAndGlyphs" textLength="50" x="200.3553" y="360.0551">Notifica</text><ellipse cx="225.5122" cy="291.4066" fill="#FEFECE" filter="url(#f1uayzqq4xejuw)" rx="44.0122" ry="14.5236" style="stroke: #A80036; stroke-width: 1.5;"/><text fill="#000000" font-family="sans-serif" font-size="14" lengthAdjust="spacingAndGlyphs" textLength="58" x="196.5122" y="296.0551">Conecta</text><!--MD5=[a10387ad8e858299a22bf8f94b5aa682]
entity Consumidor--><ellipse cx="48" cy="192.883" fill="#FEFECE" filter="url(#f1uayzqq4xejuw)" rx="8" ry="8" style="stroke: #A80036; stroke-width: 2.0;"/><path d="M48,200.883 L48,227.883 M35,208.883 L61,208.883 M48,227.883 L35,242.883 M48,227.883 L61,242.883 " fill="none" filter="url(#f1uayzqq4xejuw)" style="stroke: #A80036; stroke-width: 2.0;"/><text fill="#000000" font-family="sans-serif" font-size="14" lengthAdjust="spacingAndGlyphs" textLength="84" x="6" y="262.8781">Consumidor</text><!--MD5=[eb4e1fff4b11d66712e4b08b84d12274]
entity Fornecedor--><ellipse cx="401" cy="17.883" fill="#FEFECE" filter="url(#f1uayzqq4xejuw)" rx="8" ry="8" style="stroke: #A80036; stroke-width: 2.0;"/><path d="M401,25.883 L401,52.883 M388,33.883 L414,33.883 M401,52.883 L388,67.883 M401,52.883 L414,67.883 " fill="none" filter="url(#f1uayzqq4xejuw)" style="stroke: #A80036; stroke-width: 2.0;"/><text fill="#000000" font-family="sans-serif" font-size="14" lengthAdjust="spacingAndGlyphs" textLength="80" x="361" y="87.8781">Fornecedor</text><!--MD5=[a111db04efb593016a1ed2acace679c4]
entity Servidor--><ellipse cx="48" cy="323.883" fill="#FEFECE" filter="url(#f1uayzqq4xejuw)" rx="8" ry="8" style="stroke: #A80036; stroke-width: 2.0;"/><path d="M48,331.883 L48,358.883 M35,339.883 L61,339.883 M48,358.883 L35,373.883 M48,358.883 L61,373.883 " fill="none" filter="url(#f1uayzqq4xejuw)" style="stroke: #A80036; stroke-width: 2.0;"/><text fill="#000000" font-family="sans-serif" font-size="14" lengthAdjust="spacingAndGlyphs" textLength="56" x="20" y="393.8781">Servidor</text><!--MD5=[d608731dbe37b100af2fa244d3b10e9d]
reverse link Consumidor to  Inicio --><path d="M94.8218,202.536 C104.9958,197.972 115.791,193.347 126,189.383 C151.31,179.555 181.031,170.188 201.155,164.157 " fill="none" id="Consumidor&lt;- Inicio " style="stroke: #A80036; stroke-width: 1.0;"/><polygon fill="#A80036" points="90.1953,204.626,100.044,204.5651,94.7517,202.5671,96.7497,197.2749,90.1953,204.626" style="stroke: #A80036; stroke-width: 1.0;"/><!--MD5=[3d6bd65a995549a63576a099b6405cc3]
link Consumidor to  Sinaliza interesse --><path d="M90.147,224.383 C106.446,224.383 125.766,224.383 144.601,224.383 " fill="none" id="Consumidor-&gt; Sinaliza interesse " style="stroke: #A80036; stroke-width: 1.0;"/><polygon fill="#A80036" points="149.897,224.383,140.897,220.383,144.897,224.383,140.897,228.383,149.897,224.383" style="stroke: #A80036; stroke-width: 1.0;"/><!--MD5=[ca476eb4e5b523ea8a36237a5e213815]
link  Sinaliza interesse  to  item --><path d="M265.87,239.359 C299.516,252.159 346.88,270.176 375.392,281.022 " fill="none" id=" Sinaliza interesse -&gt; item " style="stroke: #A80036; stroke-width: 1.0;"/><polygon fill="#A80036" points="380.145,282.83,373.1566,275.8901,375.472,281.0514,370.3108,283.3669,380.145,282.83" style="stroke: #A80036; stroke-width: 1.0;"/><!--MD5=[90f7e373afb0d4b850a09c3b6a924ab4]
link  item  to Servidor--><path d="M391.38,304.018 C376.282,326.4573 342.659,370.3757 301,387.383 C228.992,416.7802 202.274,402.6013 126,387.383 C110.701,384.3305 94.6374,378.1773 81.1643,372.0749 " fill="none" id=" item -&gt;Servidor" style="stroke: #A80036; stroke-width: 1.0;"/><polygon fill="#A80036" points="76.3239,369.8348,82.8116,377.2449,80.8615,371.9348,86.1716,369.9847,76.3239,369.8348" style="stroke: #A80036; stroke-width: 1.0;"/><!--MD5=[87aad09fc27c6cfc9973c8d5b45266c3]
link Servidor to Notifica--><path d="M76.0373,355.383 C104.1478,355.383 148.563,355.383 181.496,355.383 " fill="none" id="Servidor-&gt;Notifica" style="stroke: #A80036; stroke-width: 1.0;"/><polygon fill="#A80036" points="186.679,355.383,177.679,351.383,181.679,355.383,177.679,359.383,186.679,355.383" style="stroke: #A80036; stroke-width: 1.0;"/><!--MD5=[9375c6f93e40653bf0dad7de11b8b6ec]
link Notifica to Fornecedor--><path d="M259.199,348.0532 C273.788,343.2576 290.106,335.5469 301,323.383 C362.061,255.202 326.861,211.304 361,126.383 C365.071,116.255 369.984,105.657 374.928,95.675 " fill="none" id="Notifica-&gt;Fornecedor" style="stroke: #A80036; stroke-width: 1.0;"/><polygon fill="#A80036" points="377.2,91.136,369.5958,97.395,374.9628,95.6076,376.7503,100.9746,377.2,91.136" style="stroke: #A80036; stroke-width: 1.0;"/><!--MD5=[bf3a2f56ad2e7b47457404dffcd68e1e]
link Servidor to Conecta--><path d="M76.2304,343.444 C90.8701,337.1837 109.298,329.5554 126,323.383 C147.925,315.2803 172.983,307.1549 192.338,301.119 " fill="none" id="Servidor-Conecta" style="stroke: #A80036; stroke-width: 1.0;"/><!--MD5=[512ea3fe925caa9f99da23e040affe03]
link Conecta to Fornecedor--><path d="M260.776,282.617 C274.644,277.667 289.952,270.233 301,259.383 C347.267,213.945 333.009,184.879 361,126.383 C365.768,116.419 371.023,105.81 376.09,95.752 " fill="none" id="Conecta-&gt;Fornecedor" style="stroke: #A80036; stroke-width: 1.0;"/><polygon fill="#A80036" points="378.403,91.174,370.7748,97.4039,376.1487,95.637,377.9156,101.0108,378.403,91.174" style="stroke: #A80036; stroke-width: 1.0;"/><!--MD5=[20f656e75e7fe9799d5c68de6a6493ad]
link Conecta to Consumidor--><path d="M191.791,281.769 C172.464,275.839 147.622,267.779 126,259.383 C115.791,255.419 104.9958,250.794 94.8218,246.23 " fill="none" id="Conecta-&gt;Consumidor" style="stroke: #A80036; stroke-width: 1.0;"/><polygon fill="#A80036" points="90.1953,244.14,96.7497,251.4911,94.7517,246.1989,100.044,244.2009,90.1953,244.14" style="stroke: #A80036; stroke-width: 1.0;"/><!--MD5=[725160c07b671d3d86df1a4618e84e8b]
@startuml
left to right direction
skinparam packageStyle rectangle
actor Consumidor
actor Fornecedor
actor Servidor

rectangle Aplicação {

  Consumidor <- - ( Inicio )
  Consumidor - -> ( Sinaliza interesse ) 
  ( Sinaliza interesse ) - -> ( item )
  ( item ) - -> Servidor 
  Servidor - -> (Notifica)
  (Notifica) - -> Fornecedor
  Servidor - - (Conecta)
  (Conecta) - -> Fornecedor
  (Conecta) - -> Consumidor

}
@enduml

PlantUML version 1.2019.10(Fri Sep 13 20:53:03 UTC 2019)
(GPL source distribution)
Java Runtime: Java(TM) SE Runtime Environment
JVM: Java HotSpot(TM) 64-Bit Server VM
Java Version: 1.7.0_25-b15
Operating System: Linux
Default Encoding: UTF-8
Language: en
Country: US
--></g></svg>