<?xml version="1.0" encoding="UTF-8" standalone="no"?><svg xmlns="http://www.w3.org/2000/svg" xmlns:xlink="http://www.w3.org/1999/xlink" contentScriptType="application/ecmascript" contentStyleType="text/css" height="426px" preserveAspectRatio="none" style="width:557px;height:426px;" version="1.1" viewBox="0 0 557 426" width="557px" zoomAndPan="magnify"><defs><filter height="300%" id="fzr19venf7toa" width="300%" x="-1" y="-1"><feGaussianBlur result="blurOut" stdDeviation="2.0"/><feColorMatrix in="blurOut" result="blurOut2" type="matrix" values="0 0 0 0 0 0 0 0 0 0 0 0 0 0 0 0 0 0 .4 0"/><feOffset dx="4.0" dy="4.0" in="blurOut2" result="blurOut3"/><feBlend in="SourceGraphic" in2="blurOut3" mode="normal"/></filter></defs><g><!--MD5=[bea9183264cba62b8c9a5e1224027178]
cluster Aplicação--><rect fill="#FFFFFF" filter="url(#fzr19venf7toa)" height="209" style="stroke: #000000; stroke-width: 1.5;" width="524" x="22" y="107.5"/><text fill="#000000" font-family="sans-serif" font-size="14" font-weight="bold" lengthAdjust="spacingAndGlyphs" textLength="75" x="246.5" y="122.4951">Aplicação</text><ellipse cx="90.7487" cy="157.5236" fill="#FEFECE" filter="url(#fzr19venf7toa)" rx="27.7487" ry="14.5236" style="stroke: #A80036; stroke-width: 1.5;"/><text fill="#000000" font-family="sans-serif" font-size="14" lengthAdjust="spacingAndGlyphs" textLength="35" x="73.2487" y="162.1721">Inicio</text><ellipse cx="90.4558" cy="221.5236" fill="#FEFECE" filter="url(#fzr19venf7toa)" rx="28.4558" ry="14.5236" style="stroke: #A80036; stroke-width: 1.5;"/><text fill="#000000" font-family="sans-serif" font-size="14" lengthAdjust="spacingAndGlyphs" textLength="36" x="72.4558" y="226.1721">Pede</text><ellipse cx="307.9911" cy="221.3982" fill="#FEFECE" filter="url(#fzr19venf7toa)" rx="104.9911" ry="23.3982" style="stroke: #A80036; stroke-width: 1.5;"/><text fill="#000000" font-family="sans-serif" font-size="14" lengthAdjust="spacingAndGlyphs" textLength="187" x="214.4911" y="226.0466">Formulário de autenticação</text><ellipse cx="501.4558" cy="221.5236" fill="#FEFECE" filter="url(#fzr19venf7toa)" rx="28.4558" ry="14.5236" style="stroke: #A80036; stroke-width: 1.5;"/><text fill="#000000" font-family="sans-serif" font-size="14" lengthAdjust="spacingAndGlyphs" textLength="36" x="483.4558" y="226.1721">Envia</text><ellipse cx="90.4975" cy="285.5236" fill="#FEFECE" filter="url(#fzr19venf7toa)" rx="52.4975" ry="14.5236" style="stroke: #A80036; stroke-width: 1.5;"/><text fill="#000000" font-family="sans-serif" font-size="14" lengthAdjust="spacingAndGlyphs" textLength="70" x="55.4975" y="290.1721">Credência</text><!--MD5=[128f0757cf0ea77f14e95a88885fd9f7]
entity Usuario--><ellipse cx="308" cy="18" fill="#FEFECE" filter="url(#fzr19venf7toa)" rx="8" ry="8" style="stroke: #A80036; stroke-width: 2.0;"/><path d="M308,26 L308,53 M295,34 L321,34 M308,53 L295,68 M308,53 L321,68 " fill="none" filter="url(#fzr19venf7toa)" style="stroke: #A80036; stroke-width: 2.0;"/><text fill="#000000" font-family="sans-serif" font-size="14" lengthAdjust="spacingAndGlyphs" textLength="52" x="282" y="87.9951">Usuario</text><!--MD5=[a111db04efb593016a1ed2acace679c4]
entity Servidor--><ellipse cx="501.5" cy="343" fill="#FEFECE" filter="url(#fzr19venf7toa)" rx="8" ry="8" style="stroke: #A80036; stroke-width: 2.0;"/><path d="M501.5,351 L501.5,378 M488.5,359 L514.5,359 M501.5,378 L488.5,393 M501.5,378 L514.5,393 " fill="none" filter="url(#fzr19venf7toa)" style="stroke: #A80036; stroke-width: 2.0;"/><text fill="#000000" font-family="sans-serif" font-size="14" lengthAdjust="spacingAndGlyphs" textLength="56" x="473.5" y="412.9951">Servidor</text><!--MD5=[a5f33560db2a49a1c177577936b34977]
reverse link Usuario to  Inicio --><path d="M277.326,64.372 C232.533,86.82 148.868,128.75 111.004,147.725 " fill="none" id="Usuario&lt;- Inicio " style="stroke: #A80036; stroke-width: 1.0;"/><polygon fill="#A80036" points="281.8,62.129,271.9617,62.585,277.3299,64.3691,275.5458,69.7372,281.8,62.129" style="stroke: #A80036; stroke-width: 1.0;"/><!--MD5=[a262d18b36c37d4ad7e572acfaed26d9]
link Usuario to  Pede --><path d="M281.696,66.4 C260.039,81.287 228.424,104.041 203,126.5 C174.021,152.099 172.996,165.1 143,189.5 C134.439,196.464 124.252,203.091 115.207,208.49 " fill="none" id="Usuario-&gt; Pede " style="stroke: #A80036; stroke-width: 1.0;"/><polygon fill="#A80036" points="110.87,211.037,120.6561,209.9271,115.1811,208.5043,116.6039,203.0293,110.87,211.037" style="stroke: #A80036; stroke-width: 1.0;"/><!--MD5=[bf9b35a1096726df3a7d7e31d5d93b61]
link  Pede  to Formulário de autenticação--><path d="M119.232,221.5 C139.542,221.5 168.542,221.5 197.693,221.5 " fill="none" id=" Pede -&gt;Formulário de autenticação" style="stroke: #A80036; stroke-width: 1.0;"/><polygon fill="#A80036" points="202.753,221.5,193.753,217.5,197.753,221.5,193.753,225.5,202.753,221.5" style="stroke: #A80036; stroke-width: 1.0;"/><!--MD5=[260800b4d07978f9121a76e944ada4d9]
link Formulário de autenticação to  Envia --><path d="M396.344,234.206 C424.171,234.497 452.953,233.341 473.189,230.74 " fill="none" id="Formulário de autenticação-&gt; Envia " style="stroke: #A80036; stroke-width: 1.0;"/><polygon fill="#A80036" points="478.145,230.048,468.6775,227.3338,473.1932,230.7409,469.7862,235.2566,478.145,230.048" style="stroke: #A80036; stroke-width: 1.0;"/><!--MD5=[c69c0c7dab6441e3109a90c0f156029e]
link  Envia  to Formulário de autenticação--><path d="M478.821,212.559 C459.236,209.329 429.037,207.815 399.505,208.018 " fill="none" id=" Envia -&gt;Formulário de autenticação" style="stroke: #A80036; stroke-width: 1.0;"/><polygon fill="#A80036" points="394.389,208.071,403.4297,211.9782,399.3887,208.0196,403.3474,203.9786,394.389,208.071" style="stroke: #A80036; stroke-width: 1.0;"/><!--MD5=[8d601345f2bfdf50176ac8441ce11f47]
link  Envia  to Servidor--><path d="M501.5,236.304 C501.5,266.761 501.5,297.219 501.5,327.6768 " fill="none" id=" Envia -&gt;Servidor" style="stroke: #A80036; stroke-width: 1.0;"/><polygon fill="#A80036" points="501.5,332.9629,505.5,323.9629,501.5,327.9629,497.5,323.9629,501.5,332.9629" style="stroke: #A80036; stroke-width: 1.0;"/><!--MD5=[dce2ce4aa7ccbe320abefc5002fca6c8]
link Servidor to  Envia --><path d="M501.5,332.9629 C501.5,302.505 501.5,272.047 501.5,241.59 " fill="none" id="Servidor-&gt; Envia " style="stroke: #A80036; stroke-width: 1.0;"/><polygon fill="#A80036" points="501.5,236.304,497.5,245.304,501.5,241.304,505.5,245.304,501.5,236.304" style="stroke: #A80036; stroke-width: 1.0;"/><!--MD5=[6b6fb36ab13729659e4ee26303774a22]
link Formulário de autenticação to Usuario--><path d="M308,197.984 C308,164.078 308,130.171 308,96.264 " fill="none" id="Formulário de autenticação-&gt;Usuario" style="stroke: #A80036; stroke-width: 1.0;"/><polygon fill="#A80036" points="308,91.261,304,100.261,308,96.261,312,100.261,308,91.261" style="stroke: #A80036; stroke-width: 1.0;"/><!--MD5=[2feec7ea64349ac845bc6d23b1769297]
link Formulário de autenticação to Servidor--><path d="M337.256,244.076 C372.448,272.192 432.389,320.0826 469.019,349.3483 " fill="none" id="Formulário de autenticação-&gt;Servidor" style="stroke: #A80036; stroke-width: 1.0;"/><polygon fill="#A80036" points="473.368,352.8224,468.8339,344.0793,469.4618,349.7012,463.84,350.3291,473.368,352.8224" style="stroke: #A80036; stroke-width: 1.0;"/><!--MD5=[a7afba9f2c13366b6cbd618603822907]
link Usuario to  Envia --><path d="M334.399,66.293 C356.116,81.114 387.764,103.83 413,126.5 C440.876,151.542 469.644,184.372 486.261,204.151 " fill="none" id="Usuario-&gt; Envia " style="stroke: #A80036; stroke-width: 1.0;"/><polygon fill="#A80036" points="489.618,208.166,486.9136,198.6957,486.4108,204.3302,480.7763,203.8273,489.618,208.166" style="stroke: #A80036; stroke-width: 1.0;"/><!--MD5=[31b5ee8d7e011c89157a908876b2e03d]
link Servidor to  Credência --><path d="M473.367,368.5959 C404.575,353.6263 222.747,314.06 137.207,295.446 " fill="none" id="Servidor-&gt; Credência " style="stroke: #A80036; stroke-width: 1.0;"/><polygon fill="#A80036" points="132.212,294.359,140.1544,300.1829,137.0974,295.4232,141.8572,292.3663,132.212,294.359" style="stroke: #A80036; stroke-width: 1.0;"/><!--MD5=[60846630d4d0c3388c5f1636cb0dc557]
link  Credência  to Usuario--><path d="M117.761,273.087 C126.605,267.959 135.995,261.357 143,253.5 C184.541,206.902 163.388,174.749 203,126.5 C223.849,101.106 254.819,79.596 277.541,65.82 " fill="none" id=" Credência -&gt;Usuario" style="stroke: #A80036; stroke-width: 1.0;"/><polygon fill="#A80036" points="281.97,63.169,272.1935,64.3604,277.6801,65.7375,276.303,71.2242,281.97,63.169" style="stroke: #A80036; stroke-width: 1.0;"/><!--MD5=[2be5427c071ee398d2cfbb16003b8bf8]
@startuml
left to right direction
skinparam packageStyle rectangle
actor Usuario
actor Servidor

rectangle Aplicação {
  Usuario <- - ( Inicio )
  Usuario - -> ( Pede ) 
  ( Pede ) - -> (Formulário de autenticação)
  
  (Formulário de autenticação) - -> ( Envia )
  ( Envia ) - -> Servidor

   Servidor - -> ( Envia )
  ( Envia ) - -> (Formulário de autenticação)
  (Formulário de autenticação) - -> Usuario
  (Formulário de autenticação) - -> Servidor
   Usuario - -> ( Envia )
   Servidor - -> ( Credência )
   ( Credência ) - -> Usuario
 
}
@enduml

PlantUML version 1.2019.10(Fri Sep 13 20:53:03 UTC 2019)
(GPL source distribution)
Java Runtime: Java(TM) SE Runtime Environment
JVM: Java HotSpot(TM) 64-Bit Server VM
Java Version: 1.7.0_25-b15
Operating System: Linux
Default Encoding: UTF-8
Language: en
Country: US
--></g></svg>