<?xml version="1.0" encoding="UTF-8" standalone="no"?><svg xmlns="http://www.w3.org/2000/svg" xmlns:xlink="http://www.w3.org/1999/xlink" contentScriptType="application/ecmascript" contentStyleType="text/css" height="844px" preserveAspectRatio="none" style="width:817px;height:844px;" version="1.1" viewBox="0 0 817 844" width="817px" zoomAndPan="magnify"><defs><filter height="300%" id="f1133jjzkgv578" width="300%" x="-1" y="-1"><feGaussianBlur result="blurOut" stdDeviation="2.0"/><feColorMatrix in="blurOut" result="blurOut2" type="matrix" values="0 0 0 0 0 0 0 0 0 0 0 0 0 0 0 0 0 0 .4 0"/><feOffset dx="4.0" dy="4.0" in="blurOut2" result="blurOut3"/><feBlend in="SourceGraphic" in2="blurOut3" mode="normal"/></filter></defs><g><!--MD5=[0b6d5397db00cc07915fb1a006f10ed9]
class Transação--><rect fill="#FEFECE" filter="url(#f1133jjzkgv578)" height="73.6094" id="Transação" style="stroke: #A80036; stroke-width: 1.5;" width="106" x="290.5" y="377"/><ellipse cx="309.1" cy="393" fill="#ADD1B2" rx="11" ry="11" style="stroke: #A80036; stroke-width: 1.0;"/><path d="M311.4438,388.6719 L311.6156,388.75 C311.8344,388.4375 312.0375,388.3438 312.3344,388.3438 C312.6313,388.3438 312.9125,388.4844 313.0688,388.75 C313.1625,388.9063 313.1781,389.0313 313.1781,389.4688 L313.1781,390.8906 C313.1781,391.3125 313.1469,391.5 313.0375,391.6563 C312.8656,391.875 312.6,392.0156 312.3344,392.0156 C312.1156,392.0156 311.8813,391.9063 311.7406,391.7656 C311.6,391.6406 311.5688,391.5156 311.5063,391.1094 C311.4125,390.7031 311.2406,390.4844 310.7563,390.2031 C310.2875,389.9531 309.6781,389.7969 309.1,389.7969 C307.3656,389.7969 306.1156,391.1094 306.1156,392.8906 L306.1156,393.9844 C306.1156,395.6875 307.4125,396.7813 309.4594,396.7813 C310.225,396.7813 310.9125,396.6563 311.3344,396.3906 C311.5219,396.2969 311.5219,396.2969 311.975,395.8125 C312.1625,395.625 312.3656,395.5469 312.5844,395.5469 C313.0531,395.5469 313.4438,395.9375 313.4438,396.3906 C313.4438,396.7813 313.1156,397.2344 312.5375,397.6406 C311.7875,398.1875 310.6313,398.4844 309.4125,398.4844 C306.5219,398.4844 304.4125,396.5938 304.4125,394.0156 L304.4125,392.8906 C304.4125,390.1719 306.4125,388.0938 309.0375,388.0938 C309.9125,388.0938 310.5063,388.2344 311.4438,388.6719 Z "/><text fill="#000000" font-family="sans-serif" font-size="12" lengthAdjust="spacingAndGlyphs" textLength="66" x="323.9" y="397.1543">Transação</text><line style="stroke: #A80036; stroke-width: 1.5;" x1="291.5" x2="395.5" y1="409" y2="409"/><ellipse cx="301.5" cy="420" fill="none" rx="3" ry="3" style="stroke: #038048; stroke-width: 1.0;"/><text fill="#000000" font-family="sans-serif" font-size="11" lengthAdjust="spacingAndGlyphs" textLength="36" x="310.5" y="423.2104">status</text><ellipse cx="301.5" cy="432.8047" fill="none" rx="3" ry="3" style="stroke: #038048; stroke-width: 1.0;"/><text fill="#000000" font-family="sans-serif" font-size="11" lengthAdjust="spacingAndGlyphs" textLength="80" x="310.5" y="436.0151">data_de_inicio</text><line style="stroke: #A80036; stroke-width: 1.5;" x1="291.5" x2="395.5" y1="442.6094" y2="442.6094"/><!--MD5=[728c24a20e1b7c7a25613b10dc1b6867]
class Avaliação--><rect fill="#FEFECE" filter="url(#f1133jjzkgv578)" height="86.4141" id="Avaliação" style="stroke: #A80036; stroke-width: 1.5;" width="91" x="330" y="224.5"/><ellipse cx="345" cy="240.5" fill="#ADD1B2" rx="11" ry="11" style="stroke: #A80036; stroke-width: 1.0;"/><path d="M347.3438,236.1719 L347.5156,236.25 C347.7344,235.9375 347.9375,235.8438 348.2344,235.8438 C348.5313,235.8438 348.8125,235.9844 348.9688,236.25 C349.0625,236.4063 349.0781,236.5313 349.0781,236.9688 L349.0781,238.3906 C349.0781,238.8125 349.0469,239 348.9375,239.1563 C348.7656,239.375 348.5,239.5156 348.2344,239.5156 C348.0156,239.5156 347.7813,239.4063 347.6406,239.2656 C347.5,239.1406 347.4688,239.0156 347.4063,238.6094 C347.3125,238.2031 347.1406,237.9844 346.6563,237.7031 C346.1875,237.4531 345.5781,237.2969 345,237.2969 C343.2656,237.2969 342.0156,238.6094 342.0156,240.3906 L342.0156,241.4844 C342.0156,243.1875 343.3125,244.2813 345.3594,244.2813 C346.125,244.2813 346.8125,244.1563 347.2344,243.8906 C347.4219,243.7969 347.4219,243.7969 347.875,243.3125 C348.0625,243.125 348.2656,243.0469 348.4844,243.0469 C348.9531,243.0469 349.3438,243.4375 349.3438,243.8906 C349.3438,244.2813 349.0156,244.7344 348.4375,245.1406 C347.6875,245.6875 346.5313,245.9844 345.3125,245.9844 C342.4219,245.9844 340.3125,244.0938 340.3125,241.5156 L340.3125,240.3906 C340.3125,237.6719 342.3125,235.5938 344.9375,235.5938 C345.8125,235.5938 346.4063,235.7344 347.3438,236.1719 Z "/><text fill="#000000" font-family="sans-serif" font-size="12" lengthAdjust="spacingAndGlyphs" textLength="59" x="359" y="244.6543">Avaliação</text><line style="stroke: #A80036; stroke-width: 1.5;" x1="331" x2="420" y1="256.5" y2="256.5"/><ellipse cx="341" cy="267.5" fill="none" rx="3" ry="3" style="stroke: #038048; stroke-width: 1.0;"/><text fill="#000000" font-family="sans-serif" font-size="11" lengthAdjust="spacingAndGlyphs" textLength="28" x="350" y="270.7104">valor</text><ellipse cx="341" cy="280.3047" fill="none" rx="3" ry="3" style="stroke: #038048; stroke-width: 1.0;"/><text fill="#000000" font-family="sans-serif" font-size="11" lengthAdjust="spacingAndGlyphs" textLength="64" x="350" y="283.5151">comentario</text><ellipse cx="341" cy="293.1094" fill="none" rx="3" ry="3" style="stroke: #038048; stroke-width: 1.0;"/><text fill="#000000" font-family="sans-serif" font-size="11" lengthAdjust="spacingAndGlyphs" textLength="25" x="350" y="296.3198">data</text><line style="stroke: #A80036; stroke-width: 1.5;" x1="331" x2="420" y1="302.9141" y2="302.9141"/><!--MD5=[ac6bea31e13c94c7baa9ad18feb7405e]
class Ticket--><rect fill="#FEFECE" filter="url(#f1133jjzkgv578)" height="150.4375" id="Ticket" style="stroke: #A80036; stroke-width: 1.5;" width="135" x="671" y="8"/><ellipse cx="715.75" cy="24" fill="#ADD1B2" rx="11" ry="11" style="stroke: #A80036; stroke-width: 1.0;"/><path d="M718.0938,19.6719 L718.2656,19.75 C718.4844,19.4375 718.6875,19.3438 718.9844,19.3438 C719.2813,19.3438 719.5625,19.4844 719.7188,19.75 C719.8125,19.9063 719.8281,20.0313 719.8281,20.4688 L719.8281,21.8906 C719.8281,22.3125 719.7969,22.5 719.6875,22.6563 C719.5156,22.875 719.25,23.0156 718.9844,23.0156 C718.7656,23.0156 718.5313,22.9063 718.3906,22.7656 C718.25,22.6406 718.2188,22.5156 718.1563,22.1094 C718.0625,21.7031 717.8906,21.4844 717.4063,21.2031 C716.9375,20.9531 716.3281,20.7969 715.75,20.7969 C714.0156,20.7969 712.7656,22.1094 712.7656,23.8906 L712.7656,24.9844 C712.7656,26.6875 714.0625,27.7813 716.1094,27.7813 C716.875,27.7813 717.5625,27.6563 717.9844,27.3906 C718.1719,27.2969 718.1719,27.2969 718.625,26.8125 C718.8125,26.625 719.0156,26.5469 719.2344,26.5469 C719.7031,26.5469 720.0938,26.9375 720.0938,27.3906 C720.0938,27.7813 719.7656,28.2344 719.1875,28.6406 C718.4375,29.1875 717.2813,29.4844 716.0625,29.4844 C713.1719,29.4844 711.0625,27.5938 711.0625,25.0156 L711.0625,23.8906 C711.0625,21.1719 713.0625,19.0938 715.6875,19.0938 C716.5625,19.0938 717.1563,19.2344 718.0938,19.6719 Z "/><text fill="#000000" font-family="sans-serif" font-size="12" lengthAdjust="spacingAndGlyphs" textLength="37" x="736.25" y="28.1543">Ticket</text><line style="stroke: #A80036; stroke-width: 1.5;" x1="672" x2="805" y1="40" y2="40"/><ellipse cx="682" cy="51" fill="none" rx="3" ry="3" style="stroke: #038048; stroke-width: 1.0;"/><text fill="#000000" font-family="sans-serif" font-size="11" lengthAdjust="spacingAndGlyphs" textLength="109" x="691" y="54.2104">Usuario_Solicitante</text><ellipse cx="682" cy="63.8047" fill="none" rx="3" ry="3" style="stroke: #038048; stroke-width: 1.0;"/><text fill="#000000" font-family="sans-serif" font-size="11" lengthAdjust="spacingAndGlyphs" textLength="108" x="691" y="67.0151">Usuario_Reportado</text><ellipse cx="682" cy="76.6094" fill="none" rx="3" ry="3" style="stroke: #038048; stroke-width: 1.0;"/><text fill="#000000" font-family="sans-serif" font-size="11" lengthAdjust="spacingAndGlyphs" textLength="106" x="691" y="79.8198">Motivo_do_Reporte</text><ellipse cx="682" cy="89.4141" fill="none" rx="3" ry="3" style="stroke: #038048; stroke-width: 1.0;"/><text fill="#000000" font-family="sans-serif" font-size="11" lengthAdjust="spacingAndGlyphs" textLength="60" x="691" y="92.6245">Transação</text><ellipse cx="682" cy="102.2188" fill="none" rx="3" ry="3" style="stroke: #038048; stroke-width: 1.0;"/><text fill="#000000" font-family="sans-serif" font-size="11" lengthAdjust="spacingAndGlyphs" textLength="44" x="691" y="105.4292">Anuncio</text><ellipse cx="682" cy="115.0234" fill="none" rx="3" ry="3" style="stroke: #038048; stroke-width: 1.0;"/><text fill="#000000" font-family="sans-serif" font-size="11" lengthAdjust="spacingAndGlyphs" textLength="70" x="691" y="118.2339">Identificador</text><ellipse cx="682" cy="127.8281" fill="none" rx="3" ry="3" style="stroke: #038048; stroke-width: 1.0;"/><text fill="#000000" font-family="sans-serif" font-size="11" lengthAdjust="spacingAndGlyphs" textLength="36" x="691" y="131.0386">status</text><ellipse cx="682" cy="140.6328" fill="none" rx="3" ry="3" style="stroke: #038048; stroke-width: 1.0;"/><text fill="#000000" font-family="sans-serif" font-size="11" lengthAdjust="spacingAndGlyphs" textLength="41" x="691" y="143.8433">anexos</text><line style="stroke: #A80036; stroke-width: 1.5;" x1="672" x2="805" y1="150.4375" y2="150.4375"/><!--MD5=[bd7f34133e42e3a7ee78b88c57cfaf71]
class TicketSuporte--><rect fill="#FEFECE" filter="url(#f1133jjzkgv578)" height="73.6094" id="TicketSuporte" style="stroke: #A80036; stroke-width: 1.5;" width="151" x="635" y="377"/><ellipse cx="664.4" cy="393" fill="#ADD1B2" rx="11" ry="11" style="stroke: #A80036; stroke-width: 1.0;"/><path d="M666.7438,388.6719 L666.9156,388.75 C667.1344,388.4375 667.3375,388.3438 667.6344,388.3438 C667.9313,388.3438 668.2125,388.4844 668.3688,388.75 C668.4625,388.9063 668.4781,389.0313 668.4781,389.4688 L668.4781,390.8906 C668.4781,391.3125 668.4469,391.5 668.3375,391.6563 C668.1656,391.875 667.9,392.0156 667.6344,392.0156 C667.4156,392.0156 667.1813,391.9063 667.0406,391.7656 C666.9,391.6406 666.8688,391.5156 666.8063,391.1094 C666.7125,390.7031 666.5406,390.4844 666.0563,390.2031 C665.5875,389.9531 664.9781,389.7969 664.4,389.7969 C662.6656,389.7969 661.4156,391.1094 661.4156,392.8906 L661.4156,393.9844 C661.4156,395.6875 662.7125,396.7813 664.7594,396.7813 C665.525,396.7813 666.2125,396.6563 666.6344,396.3906 C666.8219,396.2969 666.8219,396.2969 667.275,395.8125 C667.4625,395.625 667.6656,395.5469 667.8844,395.5469 C668.3531,395.5469 668.7438,395.9375 668.7438,396.3906 C668.7438,396.7813 668.4156,397.2344 667.8375,397.6406 C667.0875,398.1875 665.9313,398.4844 664.7125,398.4844 C661.8219,398.4844 659.7125,396.5938 659.7125,394.0156 L659.7125,392.8906 C659.7125,390.1719 661.7125,388.0938 664.3375,388.0938 C665.2125,388.0938 665.8063,388.2344 666.7438,388.6719 Z "/><text fill="#000000" font-family="sans-serif" font-size="12" lengthAdjust="spacingAndGlyphs" textLength="87" x="681.6" y="397.1543">TicketSuporte</text><line style="stroke: #A80036; stroke-width: 1.5;" x1="636" x2="785" y1="409" y2="409"/><ellipse cx="646" cy="420" fill="none" rx="3" ry="3" style="stroke: #038048; stroke-width: 1.0;"/><text fill="#000000" font-family="sans-serif" font-size="11" lengthAdjust="spacingAndGlyphs" textLength="125" x="655" y="423.2104">descrição_da_solução</text><ellipse cx="646" cy="432.8047" fill="none" rx="3" ry="3" style="stroke: #038048; stroke-width: 1.0;"/><text fill="#000000" font-family="sans-serif" font-size="11" lengthAdjust="spacingAndGlyphs" textLength="113" x="655" y="436.0151">relato_do_problema</text><line style="stroke: #A80036; stroke-width: 1.5;" x1="636" x2="785" y1="442.6094" y2="442.6094"/><!--MD5=[e70efcfb4764c604fb6951e90fefd6e5]
class TicketDeConduta--><rect fill="#FEFECE" filter="url(#f1133jjzkgv578)" height="99.2188" id="TicketDeConduta" style="stroke: #A80036; stroke-width: 1.5;" width="174" x="581.5" y="218"/><ellipse cx="612.25" cy="234" fill="#ADD1B2" rx="11" ry="11" style="stroke: #A80036; stroke-width: 1.0;"/><path d="M614.5938,229.6719 L614.7656,229.75 C614.9844,229.4375 615.1875,229.3438 615.4844,229.3438 C615.7813,229.3438 616.0625,229.4844 616.2188,229.75 C616.3125,229.9063 616.3281,230.0313 616.3281,230.4688 L616.3281,231.8906 C616.3281,232.3125 616.2969,232.5 616.1875,232.6563 C616.0156,232.875 615.75,233.0156 615.4844,233.0156 C615.2656,233.0156 615.0313,232.9063 614.8906,232.7656 C614.75,232.6406 614.7188,232.5156 614.6563,232.1094 C614.5625,231.7031 614.3906,231.4844 613.9063,231.2031 C613.4375,230.9531 612.8281,230.7969 612.25,230.7969 C610.5156,230.7969 609.2656,232.1094 609.2656,233.8906 L609.2656,234.9844 C609.2656,236.6875 610.5625,237.7813 612.6094,237.7813 C613.375,237.7813 614.0625,237.6563 614.4844,237.3906 C614.6719,237.2969 614.6719,237.2969 615.125,236.8125 C615.3125,236.625 615.5156,236.5469 615.7344,236.5469 C616.2031,236.5469 616.5938,236.9375 616.5938,237.3906 C616.5938,237.7813 616.2656,238.2344 615.6875,238.6406 C614.9375,239.1875 613.7813,239.4844 612.5625,239.4844 C609.6719,239.4844 607.5625,237.5938 607.5625,235.0156 L607.5625,233.8906 C607.5625,231.1719 609.5625,229.0938 612.1875,229.0938 C613.0625,229.0938 613.6563,229.2344 614.5938,229.6719 Z "/><text fill="#000000" font-family="sans-serif" font-size="12" lengthAdjust="spacingAndGlyphs" textLength="107" x="629.75" y="238.1543">TicketDeConduta</text><line style="stroke: #A80036; stroke-width: 1.5;" x1="582.5" x2="754.5" y1="250" y2="250"/><ellipse cx="592.5" cy="261" fill="none" rx="3" ry="3" style="stroke: #038048; stroke-width: 1.0;"/><text fill="#000000" font-family="sans-serif" font-size="11" lengthAdjust="spacingAndGlyphs" textLength="148" x="601.5" y="264.2104">penalidade_para_acusado</text><ellipse cx="592.5" cy="273.8047" fill="none" rx="3" ry="3" style="stroke: #038048; stroke-width: 1.0;"/><text fill="#000000" font-family="sans-serif" font-size="11" lengthAdjust="spacingAndGlyphs" textLength="142" x="601.5" y="277.0151">referências_de_denuncia</text><ellipse cx="592.5" cy="286.6094" fill="none" rx="3" ry="3" style="stroke: #038048; stroke-width: 1.0;"/><text fill="#000000" font-family="sans-serif" font-size="11" lengthAdjust="spacingAndGlyphs" textLength="142" x="601.5" y="289.8198">item_de_conduta_violado</text><ellipse cx="592.5" cy="299.4141" fill="none" rx="3" ry="3" style="stroke: #038048; stroke-width: 1.0;"/><text fill="#000000" font-family="sans-serif" font-size="11" lengthAdjust="spacingAndGlyphs" textLength="77" x="601.5" y="302.6245">foi_indeferida</text><line style="stroke: #A80036; stroke-width: 1.5;" x1="582.5" x2="754.5" y1="309.2188" y2="309.2188"/><!--MD5=[13c8ce2a30796149275b9a2bf2a3ce00]
class Iten--><rect fill="#FEFECE" filter="url(#f1133jjzkgv578)" height="137.6328" id="Iten" style="stroke: #A80036; stroke-width: 1.5;" width="151" x="135" y="696"/><ellipse cx="194.25" cy="712" fill="#ADD1B2" rx="11" ry="11" style="stroke: #A80036; stroke-width: 1.0;"/><path d="M196.5938,707.6719 L196.7656,707.75 C196.9844,707.4375 197.1875,707.3438 197.4844,707.3438 C197.7813,707.3438 198.0625,707.4844 198.2188,707.75 C198.3125,707.9063 198.3281,708.0313 198.3281,708.4688 L198.3281,709.8906 C198.3281,710.3125 198.2969,710.5 198.1875,710.6563 C198.0156,710.875 197.75,711.0156 197.4844,711.0156 C197.2656,711.0156 197.0313,710.9063 196.8906,710.7656 C196.75,710.6406 196.7188,710.5156 196.6563,710.1094 C196.5625,709.7031 196.3906,709.4844 195.9063,709.2031 C195.4375,708.9531 194.8281,708.7969 194.25,708.7969 C192.5156,708.7969 191.2656,710.1094 191.2656,711.8906 L191.2656,712.9844 C191.2656,714.6875 192.5625,715.7813 194.6094,715.7813 C195.375,715.7813 196.0625,715.6563 196.4844,715.3906 C196.6719,715.2969 196.6719,715.2969 197.125,714.8125 C197.3125,714.625 197.5156,714.5469 197.7344,714.5469 C198.2031,714.5469 198.5938,714.9375 198.5938,715.3906 C198.5938,715.7813 198.2656,716.2344 197.6875,716.6406 C196.9375,717.1875 195.7813,717.4844 194.5625,717.4844 C191.6719,717.4844 189.5625,715.5938 189.5625,713.0156 L189.5625,711.8906 C189.5625,709.1719 191.5625,707.0938 194.1875,707.0938 C195.0625,707.0938 195.6563,707.2344 196.5938,707.6719 Z "/><text fill="#000000" font-family="sans-serif" font-size="12" lengthAdjust="spacingAndGlyphs" textLength="24" x="214.75" y="716.1543">Iten</text><line style="stroke: #A80036; stroke-width: 1.5;" x1="136" x2="285" y1="728" y2="728"/><ellipse cx="146" cy="739" fill="none" rx="3" ry="3" style="stroke: #038048; stroke-width: 1.0;"/><text fill="#000000" font-family="sans-serif" font-size="11" lengthAdjust="spacingAndGlyphs" textLength="28" x="155" y="742.2104">titulo</text><ellipse cx="146" cy="751.8047" fill="none" rx="3" ry="3" style="stroke: #038048; stroke-width: 1.0;"/><text fill="#000000" font-family="sans-serif" font-size="11" lengthAdjust="spacingAndGlyphs" textLength="97" x="155" y="755.0151">condiçõe_de_uso</text><ellipse cx="146" cy="764.6094" fill="none" rx="3" ry="3" style="stroke: #038048; stroke-width: 1.0;"/><text fill="#000000" font-family="sans-serif" font-size="11" lengthAdjust="spacingAndGlyphs" textLength="102" x="155" y="767.8198">é_troca_ou_venda</text><ellipse cx="146" cy="777.4141" fill="none" rx="3" ry="3" style="stroke: #038048; stroke-width: 1.0;"/><text fill="#000000" font-family="sans-serif" font-size="11" lengthAdjust="spacingAndGlyphs" textLength="109" x="155" y="780.6245">descrição_de_valor</text><ellipse cx="146" cy="790.2188" fill="none" rx="3" ry="3" style="stroke: #038048; stroke-width: 1.0;"/><text fill="#000000" font-family="sans-serif" font-size="11" lengthAdjust="spacingAndGlyphs" textLength="50" x="155" y="793.4292">descição</text><ellipse cx="146" cy="803.0234" fill="none" rx="3" ry="3" style="stroke: #038048; stroke-width: 1.0;"/><text fill="#000000" font-family="sans-serif" font-size="11" lengthAdjust="spacingAndGlyphs" textLength="125" x="155" y="806.2339">imagens_inlustrativas</text><ellipse cx="146" cy="815.8281" fill="none" rx="3" ry="3" style="stroke: #038048; stroke-width: 1.0;"/><text fill="#000000" font-family="sans-serif" font-size="11" lengthAdjust="spacingAndGlyphs" textLength="113" x="155" y="819.0386">videos_inlustrativas</text><line style="stroke: #A80036; stroke-width: 1.5;" x1="136" x2="285" y1="825.6328" y2="825.6328"/><!--MD5=[28183b5fe251cf9d4adbbaa3c2129d6e]
class Catalogo--><rect fill="#FEFECE" filter="url(#f1133jjzkgv578)" height="60.8047" id="Catalogo" style="stroke: #A80036; stroke-width: 1.5;" width="143" x="6" y="543"/><ellipse cx="45.75" cy="559" fill="#ADD1B2" rx="11" ry="11" style="stroke: #A80036; stroke-width: 1.0;"/><path d="M48.0938,554.6719 L48.2656,554.75 C48.4844,554.4375 48.6875,554.3438 48.9844,554.3438 C49.2813,554.3438 49.5625,554.4844 49.7188,554.75 C49.8125,554.9063 49.8281,555.0313 49.8281,555.4688 L49.8281,556.8906 C49.8281,557.3125 49.7969,557.5 49.6875,557.6563 C49.5156,557.875 49.25,558.0156 48.9844,558.0156 C48.7656,558.0156 48.5313,557.9063 48.3906,557.7656 C48.25,557.6406 48.2188,557.5156 48.1563,557.1094 C48.0625,556.7031 47.8906,556.4844 47.4063,556.2031 C46.9375,555.9531 46.3281,555.7969 45.75,555.7969 C44.0156,555.7969 42.7656,557.1094 42.7656,558.8906 L42.7656,559.9844 C42.7656,561.6875 44.0625,562.7813 46.1094,562.7813 C46.875,562.7813 47.5625,562.6563 47.9844,562.3906 C48.1719,562.2969 48.1719,562.2969 48.625,561.8125 C48.8125,561.625 49.0156,561.5469 49.2344,561.5469 C49.7031,561.5469 50.0938,561.9375 50.0938,562.3906 C50.0938,562.7813 49.7656,563.2344 49.1875,563.6406 C48.4375,564.1875 47.2813,564.4844 46.0625,564.4844 C43.1719,564.4844 41.0625,562.5938 41.0625,560.0156 L41.0625,558.8906 C41.0625,556.1719 43.0625,554.0938 45.6875,554.0938 C46.5625,554.0938 47.1563,554.2344 48.0938,554.6719 Z "/><text fill="#000000" font-family="sans-serif" font-size="12" lengthAdjust="spacingAndGlyphs" textLength="56" x="65.25" y="563.1543">Catalogo</text><line style="stroke: #A80036; stroke-width: 1.5;" x1="7" x2="148" y1="575" y2="575"/><ellipse cx="17" cy="586" fill="none" rx="3" ry="3" style="stroke: #038048; stroke-width: 1.0;"/><text fill="#000000" font-family="sans-serif" font-size="11" lengthAdjust="spacingAndGlyphs" textLength="117" x="26" y="589.2104">quantidade_de_itens</text><line style="stroke: #A80036; stroke-width: 1.5;" x1="7" x2="148" y1="595.8047" y2="595.8047"/><!--MD5=[35a64b983c79880384a2fd9b61f0c24b]
class Usuario--><rect fill="#FEFECE" filter="url(#f1133jjzkgv578)" height="124.8281" id="Usuario" style="stroke: #A80036; stroke-width: 1.5;" width="123" x="231" y="20.5"/><ellipse cx="265.35" cy="36.5" fill="#ADD1B2" rx="11" ry="11" style="stroke: #A80036; stroke-width: 1.0;"/><path d="M267.6938,32.1719 L267.8656,32.25 C268.0844,31.9375 268.2875,31.8438 268.5844,31.8438 C268.8813,31.8438 269.1625,31.9844 269.3188,32.25 C269.4125,32.4063 269.4281,32.5313 269.4281,32.9688 L269.4281,34.3906 C269.4281,34.8125 269.3969,35 269.2875,35.1563 C269.1156,35.375 268.85,35.5156 268.5844,35.5156 C268.3656,35.5156 268.1313,35.4063 267.9906,35.2656 C267.85,35.1406 267.8188,35.0156 267.7563,34.6094 C267.6625,34.2031 267.4906,33.9844 267.0063,33.7031 C266.5375,33.4531 265.9281,33.2969 265.35,33.2969 C263.6156,33.2969 262.3656,34.6094 262.3656,36.3906 L262.3656,37.4844 C262.3656,39.1875 263.6625,40.2813 265.7094,40.2813 C266.475,40.2813 267.1625,40.1563 267.5844,39.8906 C267.7719,39.7969 267.7719,39.7969 268.225,39.3125 C268.4125,39.125 268.6156,39.0469 268.8344,39.0469 C269.3031,39.0469 269.6938,39.4375 269.6938,39.8906 C269.6938,40.2813 269.3656,40.7344 268.7875,41.1406 C268.0375,41.6875 266.8813,41.9844 265.6625,41.9844 C262.7719,41.9844 260.6625,40.0938 260.6625,37.5156 L260.6625,36.3906 C260.6625,33.6719 262.6625,31.5938 265.2875,31.5938 C266.1625,31.5938 266.7563,31.7344 267.6938,32.1719 Z "/><text fill="#000000" font-family="sans-serif" font-size="12" lengthAdjust="spacingAndGlyphs" textLength="48" x="283.65" y="40.6543">Usuario</text><line style="stroke: #A80036; stroke-width: 1.5;" x1="232" x2="353" y1="52.5" y2="52.5"/><ellipse cx="242" cy="63.5" fill="none" rx="3" ry="3" style="stroke: #038048; stroke-width: 1.0;"/><text fill="#000000" font-family="sans-serif" font-size="11" lengthAdjust="spacingAndGlyphs" textLength="31" x="251" y="66.7104">email</text><ellipse cx="242" cy="76.3047" fill="none" rx="3" ry="3" style="stroke: #038048; stroke-width: 1.0;"/><text fill="#000000" font-family="sans-serif" font-size="11" lengthAdjust="spacingAndGlyphs" textLength="35" x="251" y="79.5151">senha</text><ellipse cx="242" cy="89.1094" fill="none" rx="3" ry="3" style="stroke: #038048; stroke-width: 1.0;"/><text fill="#000000" font-family="sans-serif" font-size="11" lengthAdjust="spacingAndGlyphs" textLength="32" x="251" y="92.3198">nome</text><ellipse cx="242" cy="101.9141" fill="none" rx="3" ry="3" style="stroke: #038048; stroke-width: 1.0;"/><text fill="#000000" font-family="sans-serif" font-size="11" lengthAdjust="spacingAndGlyphs" textLength="71" x="251" y="105.1245">sobre_nome</text><ellipse cx="242" cy="114.7188" fill="none" rx="3" ry="3" style="stroke: #038048; stroke-width: 1.0;"/><text fill="#000000" font-family="sans-serif" font-size="11" lengthAdjust="spacingAndGlyphs" textLength="97" x="251" y="117.9292">data_nascimento</text><ellipse cx="242" cy="127.5234" fill="none" rx="3" ry="3" style="stroke: #038048; stroke-width: 1.0;"/><text fill="#000000" font-family="sans-serif" font-size="11" lengthAdjust="spacingAndGlyphs" textLength="93" x="251" y="130.7339">raio_de_atuação</text><line style="stroke: #A80036; stroke-width: 1.5;" x1="232" x2="353" y1="137.3281" y2="137.3281"/><!--MD5=[1bca349f942a9114993652444a9c5fbf]
class Fornecedor--><rect fill="#FEFECE" filter="url(#f1133jjzkgv578)" height="60.8047" id="Fornecedor" style="stroke: #A80036; stroke-width: 1.5;" width="104" x="80.5" y="237"/><ellipse cx="95.5" cy="253" fill="#ADD1B2" rx="11" ry="11" style="stroke: #A80036; stroke-width: 1.0;"/><path d="M97.8438,248.6719 L98.0156,248.75 C98.2344,248.4375 98.4375,248.3438 98.7344,248.3438 C99.0313,248.3438 99.3125,248.4844 99.4688,248.75 C99.5625,248.9063 99.5781,249.0313 99.5781,249.4688 L99.5781,250.8906 C99.5781,251.3125 99.5469,251.5 99.4375,251.6563 C99.2656,251.875 99,252.0156 98.7344,252.0156 C98.5156,252.0156 98.2813,251.9063 98.1406,251.7656 C98,251.6406 97.9688,251.5156 97.9063,251.1094 C97.8125,250.7031 97.6406,250.4844 97.1563,250.2031 C96.6875,249.9531 96.0781,249.7969 95.5,249.7969 C93.7656,249.7969 92.5156,251.1094 92.5156,252.8906 L92.5156,253.9844 C92.5156,255.6875 93.8125,256.7813 95.8594,256.7813 C96.625,256.7813 97.3125,256.6563 97.7344,256.3906 C97.9219,256.2969 97.9219,256.2969 98.375,255.8125 C98.5625,255.625 98.7656,255.5469 98.9844,255.5469 C99.4531,255.5469 99.8438,255.9375 99.8438,256.3906 C99.8438,256.7813 99.5156,257.2344 98.9375,257.6406 C98.1875,258.1875 97.0313,258.4844 95.8125,258.4844 C92.9219,258.4844 90.8125,256.5938 90.8125,254.0156 L90.8125,252.8906 C90.8125,250.1719 92.8125,248.0938 95.4375,248.0938 C96.3125,248.0938 96.9063,248.2344 97.8438,248.6719 Z "/><text fill="#000000" font-family="sans-serif" font-size="12" lengthAdjust="spacingAndGlyphs" textLength="72" x="109.5" y="257.1543">Fornecedor</text><line style="stroke: #A80036; stroke-width: 1.5;" x1="81.5" x2="183.5" y1="269" y2="269"/><ellipse cx="91.5" cy="280" fill="none" rx="3" ry="3" style="stroke: #038048; stroke-width: 1.0;"/><text fill="#000000" font-family="sans-serif" font-size="11" lengthAdjust="spacingAndGlyphs" textLength="59" x="100.5" y="283.2104">pontuação</text><line style="stroke: #A80036; stroke-width: 1.5;" x1="81.5" x2="183.5" y1="289.8047" y2="289.8047"/><!--MD5=[7b0809993e5a2aa38f4ff5921d948a6d]
class Consumidor--><rect fill="#FEFECE" filter="url(#f1133jjzkgv578)" height="60.8047" id="Consumidor" style="stroke: #A80036; stroke-width: 1.5;" width="106" x="184.5" y="543"/><ellipse cx="199.5" cy="559" fill="#ADD1B2" rx="11" ry="11" style="stroke: #A80036; stroke-width: 1.0;"/><path d="M201.8438,554.6719 L202.0156,554.75 C202.2344,554.4375 202.4375,554.3438 202.7344,554.3438 C203.0313,554.3438 203.3125,554.4844 203.4688,554.75 C203.5625,554.9063 203.5781,555.0313 203.5781,555.4688 L203.5781,556.8906 C203.5781,557.3125 203.5469,557.5 203.4375,557.6563 C203.2656,557.875 203,558.0156 202.7344,558.0156 C202.5156,558.0156 202.2813,557.9063 202.1406,557.7656 C202,557.6406 201.9688,557.5156 201.9063,557.1094 C201.8125,556.7031 201.6406,556.4844 201.1563,556.2031 C200.6875,555.9531 200.0781,555.7969 199.5,555.7969 C197.7656,555.7969 196.5156,557.1094 196.5156,558.8906 L196.5156,559.9844 C196.5156,561.6875 197.8125,562.7813 199.8594,562.7813 C200.625,562.7813 201.3125,562.6563 201.7344,562.3906 C201.9219,562.2969 201.9219,562.2969 202.375,561.8125 C202.5625,561.625 202.7656,561.5469 202.9844,561.5469 C203.4531,561.5469 203.8438,561.9375 203.8438,562.3906 C203.8438,562.7813 203.5156,563.2344 202.9375,563.6406 C202.1875,564.1875 201.0313,564.4844 199.8125,564.4844 C196.9219,564.4844 194.8125,562.5938 194.8125,560.0156 L194.8125,558.8906 C194.8125,556.1719 196.8125,554.0938 199.4375,554.0938 C200.3125,554.0938 200.9063,554.2344 201.8438,554.6719 Z "/><text fill="#000000" font-family="sans-serif" font-size="12" lengthAdjust="spacingAndGlyphs" textLength="74" x="213.5" y="563.1543">Consumidor</text><line style="stroke: #A80036; stroke-width: 1.5;" x1="185.5" x2="289.5" y1="575" y2="575"/><ellipse cx="195.5" cy="586" fill="none" rx="3" ry="3" style="stroke: #038048; stroke-width: 1.0;"/><text fill="#000000" font-family="sans-serif" font-size="11" lengthAdjust="spacingAndGlyphs" textLength="59" x="204.5" y="589.2104">pontuação</text><line style="stroke: #A80036; stroke-width: 1.5;" x1="185.5" x2="289.5" y1="595.8047" y2="595.8047"/><!--MD5=[b755c0688b66fad3611fb94616555049]
class Mediador--><rect fill="#FEFECE" filter="url(#f1133jjzkgv578)" height="48" id="Mediador" style="stroke: #A80036; stroke-width: 1.5;" width="90" x="456.5" y="243.5"/><ellipse cx="471.5" cy="259.5" fill="#ADD1B2" rx="11" ry="11" style="stroke: #A80036; stroke-width: 1.0;"/><path d="M473.8438,255.1719 L474.0156,255.25 C474.2344,254.9375 474.4375,254.8438 474.7344,254.8438 C475.0313,254.8438 475.3125,254.9844 475.4688,255.25 C475.5625,255.4063 475.5781,255.5313 475.5781,255.9688 L475.5781,257.3906 C475.5781,257.8125 475.5469,258 475.4375,258.1563 C475.2656,258.375 475,258.5156 474.7344,258.5156 C474.5156,258.5156 474.2813,258.4063 474.1406,258.2656 C474,258.1406 473.9688,258.0156 473.9063,257.6094 C473.8125,257.2031 473.6406,256.9844 473.1563,256.7031 C472.6875,256.4531 472.0781,256.2969 471.5,256.2969 C469.7656,256.2969 468.5156,257.6094 468.5156,259.3906 L468.5156,260.4844 C468.5156,262.1875 469.8125,263.2813 471.8594,263.2813 C472.625,263.2813 473.3125,263.1563 473.7344,262.8906 C473.9219,262.7969 473.9219,262.7969 474.375,262.3125 C474.5625,262.125 474.7656,262.0469 474.9844,262.0469 C475.4531,262.0469 475.8438,262.4375 475.8438,262.8906 C475.8438,263.2813 475.5156,263.7344 474.9375,264.1406 C474.1875,264.6875 473.0313,264.9844 471.8125,264.9844 C468.9219,264.9844 466.8125,263.0938 466.8125,260.5156 L466.8125,259.3906 C466.8125,256.6719 468.8125,254.5938 471.4375,254.5938 C472.3125,254.5938 472.9063,254.7344 473.8438,255.1719 Z "/><text fill="#000000" font-family="sans-serif" font-size="12" lengthAdjust="spacingAndGlyphs" textLength="58" x="485.5" y="263.6543">Mediador</text><line style="stroke: #A80036; stroke-width: 1.5;" x1="457.5" x2="545.5" y1="275.5" y2="275.5"/><line style="stroke: #A80036; stroke-width: 1.5;" x1="457.5" x2="545.5" y1="283.5" y2="283.5"/><!--MD5=[4a468c81f560f1b62fc586e44fccaba9]
class Favoritos--><rect fill="#FEFECE" filter="url(#f1133jjzkgv578)" height="48" id="Favoritos" style="stroke: #A80036; stroke-width: 1.5;" width="89" x="107" y="59"/><ellipse cx="122" cy="75" fill="#ADD1B2" rx="11" ry="11" style="stroke: #A80036; stroke-width: 1.0;"/><path d="M124.3438,70.6719 L124.5156,70.75 C124.7344,70.4375 124.9375,70.3438 125.2344,70.3438 C125.5313,70.3438 125.8125,70.4844 125.9688,70.75 C126.0625,70.9063 126.0781,71.0313 126.0781,71.4688 L126.0781,72.8906 C126.0781,73.3125 126.0469,73.5 125.9375,73.6563 C125.7656,73.875 125.5,74.0156 125.2344,74.0156 C125.0156,74.0156 124.7813,73.9063 124.6406,73.7656 C124.5,73.6406 124.4688,73.5156 124.4063,73.1094 C124.3125,72.7031 124.1406,72.4844 123.6563,72.2031 C123.1875,71.9531 122.5781,71.7969 122,71.7969 C120.2656,71.7969 119.0156,73.1094 119.0156,74.8906 L119.0156,75.9844 C119.0156,77.6875 120.3125,78.7813 122.3594,78.7813 C123.125,78.7813 123.8125,78.6563 124.2344,78.3906 C124.4219,78.2969 124.4219,78.2969 124.875,77.8125 C125.0625,77.625 125.2656,77.5469 125.4844,77.5469 C125.9531,77.5469 126.3438,77.9375 126.3438,78.3906 C126.3438,78.7813 126.0156,79.2344 125.4375,79.6406 C124.6875,80.1875 123.5313,80.4844 122.3125,80.4844 C119.4219,80.4844 117.3125,78.5938 117.3125,76.0156 L117.3125,74.8906 C117.3125,72.1719 119.3125,70.0938 121.9375,70.0938 C122.8125,70.0938 123.4063,70.2344 124.3438,70.6719 Z "/><text fill="#000000" font-family="sans-serif" font-size="12" lengthAdjust="spacingAndGlyphs" textLength="57" x="136" y="79.1543">Favoritos</text><line style="stroke: #A80036; stroke-width: 1.5;" x1="108" x2="195" y1="91" y2="91"/><line style="stroke: #A80036; stroke-width: 1.5;" x1="108" x2="195" y1="99" y2="99"/><!--MD5=[ec296a7289a850f00270d02cc53dd01d]
class CanalDeComunicação--><rect fill="#FEFECE" filter="url(#f1133jjzkgv578)" height="73.6094" id="CanalDeComunicação" style="stroke: #A80036; stroke-width: 1.5;" width="168" x="431.5" y="377"/><ellipse cx="446.5" cy="393" fill="#ADD1B2" rx="11" ry="11" style="stroke: #A80036; stroke-width: 1.0;"/><path d="M448.8438,388.6719 L449.0156,388.75 C449.2344,388.4375 449.4375,388.3438 449.7344,388.3438 C450.0313,388.3438 450.3125,388.4844 450.4688,388.75 C450.5625,388.9063 450.5781,389.0313 450.5781,389.4688 L450.5781,390.8906 C450.5781,391.3125 450.5469,391.5 450.4375,391.6563 C450.2656,391.875 450,392.0156 449.7344,392.0156 C449.5156,392.0156 449.2813,391.9063 449.1406,391.7656 C449,391.6406 448.9688,391.5156 448.9063,391.1094 C448.8125,390.7031 448.6406,390.4844 448.1563,390.2031 C447.6875,389.9531 447.0781,389.7969 446.5,389.7969 C444.7656,389.7969 443.5156,391.1094 443.5156,392.8906 L443.5156,393.9844 C443.5156,395.6875 444.8125,396.7813 446.8594,396.7813 C447.625,396.7813 448.3125,396.6563 448.7344,396.3906 C448.9219,396.2969 448.9219,396.2969 449.375,395.8125 C449.5625,395.625 449.7656,395.5469 449.9844,395.5469 C450.4531,395.5469 450.8438,395.9375 450.8438,396.3906 C450.8438,396.7813 450.5156,397.2344 449.9375,397.6406 C449.1875,398.1875 448.0313,398.4844 446.8125,398.4844 C443.9219,398.4844 441.8125,396.5938 441.8125,394.0156 L441.8125,392.8906 C441.8125,390.1719 443.8125,388.0938 446.4375,388.0938 C447.3125,388.0938 447.9063,388.2344 448.8438,388.6719 Z "/><text fill="#000000" font-family="sans-serif" font-size="12" lengthAdjust="spacingAndGlyphs" textLength="136" x="460.5" y="397.1543">CanalDeComunicação</text><line style="stroke: #A80036; stroke-width: 1.5;" x1="432.5" x2="598.5" y1="409" y2="409"/><ellipse cx="442.5" cy="420" fill="none" rx="3" ry="3" style="stroke: #038048; stroke-width: 1.0;"/><text fill="#000000" font-family="sans-serif" font-size="11" lengthAdjust="spacingAndGlyphs" textLength="72" x="451.5" y="423.2104">data_criação</text><ellipse cx="442.5" cy="432.8047" fill="none" rx="3" ry="3" style="stroke: #038048; stroke-width: 1.0;"/><text fill="#000000" font-family="sans-serif" font-size="11" lengthAdjust="spacingAndGlyphs" textLength="58" x="451.5" y="436.0151">esta_ativo</text><line style="stroke: #A80036; stroke-width: 1.5;" x1="432.5" x2="598.5" y1="442.6094" y2="442.6094"/><!--MD5=[0667d733c43cf4b8c42399fbed7004c0]
class Mensagen--><rect fill="#FEFECE" filter="url(#f1133jjzkgv578)" height="124.8281" id="Mensagen" style="stroke: #A80036; stroke-width: 1.5;" width="128" x="451.5" y="511"/><ellipse cx="480.45" cy="527" fill="#ADD1B2" rx="11" ry="11" style="stroke: #A80036; stroke-width: 1.0;"/><path d="M482.7938,522.6719 L482.9656,522.75 C483.1844,522.4375 483.3875,522.3438 483.6844,522.3438 C483.9813,522.3438 484.2625,522.4844 484.4188,522.75 C484.5125,522.9063 484.5281,523.0313 484.5281,523.4688 L484.5281,524.8906 C484.5281,525.3125 484.4969,525.5 484.3875,525.6563 C484.2156,525.875 483.95,526.0156 483.6844,526.0156 C483.4656,526.0156 483.2313,525.9063 483.0906,525.7656 C482.95,525.6406 482.9188,525.5156 482.8563,525.1094 C482.7625,524.7031 482.5906,524.4844 482.1063,524.2031 C481.6375,523.9531 481.0281,523.7969 480.45,523.7969 C478.7156,523.7969 477.4656,525.1094 477.4656,526.8906 L477.4656,527.9844 C477.4656,529.6875 478.7625,530.7813 480.8094,530.7813 C481.575,530.7813 482.2625,530.6563 482.6844,530.3906 C482.8719,530.2969 482.8719,530.2969 483.325,529.8125 C483.5125,529.625 483.7156,529.5469 483.9344,529.5469 C484.4031,529.5469 484.7938,529.9375 484.7938,530.3906 C484.7938,530.7813 484.4656,531.2344 483.8875,531.6406 C483.1375,532.1875 481.9813,532.4844 480.7625,532.4844 C477.8719,532.4844 475.7625,530.5938 475.7625,528.0156 L475.7625,526.8906 C475.7625,524.1719 477.7625,522.0938 480.3875,522.0938 C481.2625,522.0938 481.8563,522.2344 482.7938,522.6719 Z "/><text fill="#000000" font-family="sans-serif" font-size="12" lengthAdjust="spacingAndGlyphs" textLength="65" x="497.55" y="531.1543">Mensagen</text><line style="stroke: #A80036; stroke-width: 1.5;" x1="452.5" x2="578.5" y1="543" y2="543"/><ellipse cx="462.5" cy="554" fill="none" rx="3" ry="3" style="stroke: #038048; stroke-width: 1.0;"/><text fill="#000000" font-family="sans-serif" font-size="11" lengthAdjust="spacingAndGlyphs" textLength="59" x="471.5" y="557.2104">remetente</text><ellipse cx="462.5" cy="566.8047" fill="none" rx="3" ry="3" style="stroke: #038048; stroke-width: 1.0;"/><text fill="#000000" font-family="sans-serif" font-size="11" lengthAdjust="spacingAndGlyphs" textLength="68" x="471.5" y="570.0151">destinatario</text><ellipse cx="462.5" cy="579.6094" fill="none" rx="3" ry="3" style="stroke: #038048; stroke-width: 1.0;"/><text fill="#000000" font-family="sans-serif" font-size="11" lengthAdjust="spacingAndGlyphs" textLength="61" x="471.5" y="582.8198">data_envio</text><ellipse cx="462.5" cy="592.4141" fill="none" rx="3" ry="3" style="stroke: #038048; stroke-width: 1.0;"/><text fill="#000000" font-family="sans-serif" font-size="11" lengthAdjust="spacingAndGlyphs" textLength="102" x="471.5" y="595.6245">data_recebimento</text><ellipse cx="462.5" cy="605.2188" fill="none" rx="3" ry="3" style="stroke: #038048; stroke-width: 1.0;"/><text fill="#000000" font-family="sans-serif" font-size="11" lengthAdjust="spacingAndGlyphs" textLength="56" x="471.5" y="608.4292">ja_foi_lida</text><ellipse cx="462.5" cy="618.0234" fill="none" rx="3" ry="3" style="stroke: #038048; stroke-width: 1.0;"/><text fill="#000000" font-family="sans-serif" font-size="11" lengthAdjust="spacingAndGlyphs" textLength="52" x="471.5" y="621.2339">conteudo</text><line style="stroke: #A80036; stroke-width: 1.5;" x1="452.5" x2="578.5" y1="627.8281" y2="627.8281"/><ellipse cx="132.5" cy="414" fill="#000000" rx="2" ry="2" style="stroke: none; stroke-width: 1.0;"/><ellipse cx="182.5" cy="414" fill="#000000" rx="2" ry="2" style="stroke: none; stroke-width: 1.0;"/><ellipse cx="292.5" cy="267.5" fill="#000000" rx="2" ry="2" style="stroke: none; stroke-width: 1.0;"/><!--MD5=[ecf97576ab6cd9b857cf13cae4f12a96]
reverse link Ticket to TicketSuporte--><path d="M771.01,177.57 C781.309,220.652 786.927,272.068 773.5,317 C767.05,338.584 754.02,359.817 741.474,376.805 " fill="none" id="Ticket&lt;-TicketSuporte" style="stroke: #A80036; stroke-width: 1.0;"/><polygon fill="none" points="764.207,179.223,765.912,158.102,777.751,175.676,764.207,179.223" style="stroke: #A80036; stroke-width: 1.0;"/><!--MD5=[e3c7df0f68e388acee4a2039d67bc1ce]
reverse link Ticket to TicketDeConduta--><path d="M702.709,177.313 C697.317,191.37 691.95,205.362 687.121,217.953 " fill="none" id="Ticket&lt;-TicketDeConduta" style="stroke: #A80036; stroke-width: 1.0;"/><polygon fill="none" points="696.33,174.396,710.028,158.23,709.402,179.41,696.33,174.396" style="stroke: #A80036; stroke-width: 1.0;"/><!--MD5=[2924e734a6cbd5a1a2b821c2b485de91]
reverse link Usuario to Fornecedor--><path d="M225.281,160.672 C201.686,187.585 176.568,216.235 158.426,236.929 " fill="none" id="Usuario&lt;-Fornecedor" style="stroke: #A80036; stroke-width: 1.0;"/><polygon fill="none" points="220.106,155.956,238.554,145.532,230.633,165.185,220.106,155.956" style="stroke: #A80036; stroke-width: 1.0;"/><!--MD5=[8a88dc3eea41d828551f79193d310662]
reverse link Usuario to Consumidor--><path d="M279.683,165.436 C277.142,182.765 274.61,200.971 272.5,218 C257.632,337.988 245.061,481.456 239.949,542.565 " fill="none" id="Usuario&lt;-Consumidor" style="stroke: #A80036; stroke-width: 1.0;"/><polygon fill="none" points="272.766,164.365,282.647,145.62,286.612,166.435,272.766,164.365" style="stroke: #A80036; stroke-width: 1.0;"/><!--MD5=[edbfad5875c76f0999cf1c55ce77d221]
reverse link Usuario to Mediador--><path d="M369.579,151.306 C406.598,183.631 448.556,220.269 475.017,243.375 " fill="none" id="Usuario&lt;-Mediador" style="stroke: #A80036; stroke-width: 1.0;"/><polygon fill="none" points="364.537,156.196,354.076,137.769,373.746,145.651,364.537,156.196" style="stroke: #A80036; stroke-width: 1.0;"/><!--MD5=[b94d49e7ab095949933512edc1a16b56]
link Catalogo to Iten--><path d="M98.2812,604.109 C113.505,625.801 134.925,656.32 154.976,684.889 " fill="none" id="Catalogo-&gt;Iten" style="stroke: #A80036; stroke-width: 1.0;"/><polygon fill="#A80036" points="162.578,695.72,162.4053,688.511,155.6843,685.8977,155.8571,693.1067,162.578,695.72" style="stroke: #A80036; stroke-width: 1.0;"/><!--MD5=[c342ae2ba405c3b83a44b08a1e69c885]
link Favoritos to Usuario--><path d="M196.113,98.573 C203.24,99.909 210.366,100.694 217.492,100.926 " fill="none" id="Favoritos-&gt;Usuario" style="stroke: #A80036; stroke-width: 1.0;"/><polygon fill="#A80036" points="230.752,100.723,224.6912,96.8158,218.7534,100.9076,224.8142,104.8148,230.752,100.723" style="stroke: #A80036; stroke-width: 1.0;"/><!--MD5=[bd69a1fcf389cb3c01cb12e22eddbe88]
link Usuario to Favoritos--><path d="M230.752,65.277 C219.206,64.545 207.66,65.262 196.113,67.427 " fill="none" id="Usuario-Favoritos" style="stroke: #A80036; stroke-width: 1.0;"/><text fill="#000000" font-family="sans-serif" font-size="13" lengthAdjust="spacingAndGlyphs" textLength="24" x="204.0862" y="57.4611">1..1</text><text fill="#000000" font-family="sans-serif" font-size="13" lengthAdjust="spacingAndGlyphs" textLength="24" x="204.0742" y="78.368">1..1</text><!--MD5=[4490ec5a1544a184e7ee9a7b7e9c8171]
link CanalDeComunicação to Mensagen--><path d="M515.5,451.134 C515.5,464.969 515.5,481.317 515.5,497.456 " fill="none" id="CanalDeComunicação-&gt;Mensagen" style="stroke: #A80036; stroke-width: 1.0;"/><polygon fill="#A80036" points="515.5,510.904,519.5,504.904,515.5,498.904,511.5,504.904,515.5,510.904" style="stroke: #A80036; stroke-width: 1.0;"/><!--MD5=[8001b9a04901aaf2bca6bb879924a9ac]
link Fornecedor to apoint93386--><path d="M132.5,298.09 C132.5,337.393 132.5,402.936 132.5,411.959 " fill="none" id="Fornecedor-apoint93386" style="stroke: #A80036; stroke-width: 1.0;"/><!--MD5=[cec17095190aba4dc7fb359aa264ed33]
link apoint93386 to Catalogo--><path d="M132.149,416.006 C128.828,425.516 102.7462,500.204 87.8471,542.87 " fill="none" id="apoint93386-Catalogo" style="stroke: #A80036; stroke-width: 1.0;"/><!--MD5=[4acf3f6ff53da84751dec543159d2029]
link apoint93386 to Transação--><path d="M133.211,411.809 C136.539,401.963 151.627,361.665 180,347 C206.058,333.531 217.986,338.302 246,347 C265.811,353.151 285.166,364.877 301.342,376.822 " fill="none" id="apoint93386-Transação" style="stroke: #A80036; stroke-width: 1.0; stroke-dasharray: 7.0,7.0;"/><!--MD5=[61c02e1c3eb76507936ee5f15764dc8a]
link Fornecedor to apoint93392--><path d="M142.739,298.09 C156.339,337.393 179.018,402.936 182.14,411.959 " fill="none" id="Fornecedor-apoint93392" style="stroke: #A80036; stroke-width: 1.0;"/><!--MD5=[aa75c170ea2d5d8823b4b4b2eaf4e4cf]
link apoint93392 to Consumidor--><path d="M182.851,416.006 C186.172,425.516 212.254,500.204 227.153,542.87 " fill="none" id="apoint93392-Consumidor" style="stroke: #A80036; stroke-width: 1.0;"/><!--MD5=[48db859764711945a80efbba79a76185]
link apoint93392 to CanalDeComunicação--><path d="M184.347,412.266 C194.185,403.162 241.794,360.793 290,347 C335.294,334.041 350.418,335.094 396,347 C419.358,353.101 442.979,364.897 462.983,376.912 " fill="none" id="apoint93392-CanalDeComunicação" style="stroke: #A80036; stroke-width: 1.0; stroke-dasharray: 7.0,7.0;"/><!--MD5=[9b42e6248351bf8c533c8fbaa0574ea1]
link Usuario to apoint93398--><path d="M292.5,145.532 C292.5,194.374 292.5,255.969 292.5,265.295 " fill="none" id="Usuario-apoint93398" style="stroke: #A80036; stroke-width: 1.0;"/><!--MD5=[f93a43cbb35a3956c6d824a64cce2617]
link apoint93398 to Transação--><path d="M292.941,269.749 C296.202,278.99 316.84,337.465 330.72,376.79 " fill="none" id="apoint93398-Transação" style="stroke: #A80036; stroke-width: 1.0;"/><!--MD5=[71c231d8a5860a4335489e511373f44a]
link apoint93398 to Avaliação--><path d="M294.77,267.5 C306.438,267.5 318.106,267.5 329.774,267.5 " fill="none" id="apoint93398-Avaliação" style="stroke: #A80036; stroke-width: 1.0; stroke-dasharray: 7.0,7.0;"/><!--MD5=[e5c691cc9d0490a7ee92194357182aec]
link Usuario to TicketDeConduta--><path d="M354.168,113.932 C415.941,143.915 511.582,190.336 581.149,224.102 " fill="none" id="Usuario-TicketDeConduta" style="stroke: #A80036; stroke-width: 1.0;"/><text fill="#000000" font-family="sans-serif" font-size="13" lengthAdjust="spacingAndGlyphs" textLength="23" x="362.1708" y="113.5784">1..*</text><text fill="#000000" font-family="sans-serif" font-size="13" lengthAdjust="spacingAndGlyphs" textLength="24" x="549.5424" y="217.2687">1..1</text><!--MD5=[557ee9e4d9023662de54b47d1376c25c]
link Mediador to TicketSuporte--><path d="M530.646,291.66 C541.184,299.84 553.257,308.993 564.5,317 C593.287,337.502 626.109,359.225 653.332,376.812 " fill="none" id="Mediador-TicketSuporte" style="stroke: #A80036; stroke-width: 1.0;"/><ellipse cx="512.9597" cy="307.0261" fill="#000000" rx="2.5" ry="2.5" style="stroke: #000000; stroke-width: 0.0;"/><text fill="#000000" font-family="sans-serif" font-size="13" lengthAdjust="spacingAndGlyphs" textLength="16" x="518.4597" y="311.4602">..1</text><text fill="#000000" font-family="sans-serif" font-size="13" lengthAdjust="spacingAndGlyphs" textLength="23" x="618.1005" y="365.9655">1..*</text><!--MD5=[874aee50082f49b72e43dffb0833f88e]
link Mediador to TicketDeConduta--><path d="M546.512,267.5 C558.107,267.5 569.702,267.5 581.297,267.5 " fill="none" id="Mediador-TicketDeConduta" style="stroke: #A80036; stroke-width: 1.0;"/><ellipse cx="560.0469" cy="259.074" fill="#000000" rx="2.5" ry="2.5" style="stroke: #000000; stroke-width: 0.0;"/><text fill="#000000" font-family="sans-serif" font-size="13" lengthAdjust="spacingAndGlyphs" textLength="16" x="565.5469" y="263.5081">..1</text><text fill="#000000" font-family="sans-serif" font-size="13" lengthAdjust="spacingAndGlyphs" textLength="23" x="554.4919" y="280.7094">1..*</text><!--MD5=[cc9906f864499dc1b3ddedd44c92a146]
link Transação to TicketSuporte--><path d="M380.76,376.879 C395.218,364.939 412.698,353.202 431,347 C502.137,322.892 527.661,326.782 600,347 C621.931,353.129 643.842,364.931 662.301,376.943 " fill="none" id="Transação-TicketSuporte" style="stroke: #A80036; stroke-width: 1.0;"/><text fill="#000000" font-family="sans-serif" font-size="13" lengthAdjust="spacingAndGlyphs" textLength="24" x="361.2594" y="366.0444">0..1</text><text fill="#000000" font-family="sans-serif" font-size="13" lengthAdjust="spacingAndGlyphs" textLength="24" x="655.6268" y="365.843">1..1</text><!--MD5=[1cb3f75692948a23088f3cbe6fefdbc2]
link Transação to Iten--><path d="M342.908,451.311 C340.997,496.365 333.767,574.724 307.5,636 C298.547,656.886 285.463,677.447 271.786,695.772 " fill="none" id="Transação-Iten" style="stroke: #A80036; stroke-width: 1.0;"/><text fill="#000000" font-family="sans-serif" font-size="13" lengthAdjust="spacingAndGlyphs" textLength="23" x="317.9808" y="470.5614">1..*</text><ellipse cx="255.2139" cy="680.518" fill="#000000" rx="2.5" ry="2.5" style="stroke: #000000; stroke-width: 0.0;"/><text fill="#000000" font-family="sans-serif" font-size="13" lengthAdjust="spacingAndGlyphs" textLength="16" x="260.7139" y="684.9521">..1</text><!--MD5=[e85944b3480fba7e10187e724f97af6f]
link Fornecedor to Catalogo--><path d="M126.941,298.427 C122.905,320.212 117.328,350.428 112.5,377 C101.8371,435.691 89.602,504.338 82.7891,542.682 " fill="none" id="Fornecedor-Catalogo" style="stroke: #A80036; stroke-width: 1.0;"/><text fill="#000000" font-family="sans-serif" font-size="13" lengthAdjust="spacingAndGlyphs" textLength="23" x="100.6889" y="317.8503">1..*</text><text fill="#000000" font-family="sans-serif" font-size="13" lengthAdjust="spacingAndGlyphs" textLength="24" x="57.405" y="531.8796">1..1</text><!--MD5=[16fbbfe138d7dd7ecbbbdbbffcc6ec4c]
@startuml
class Transação{
    + status
    + data_de_inicio
  }

  class Avaliação {
    + valor
    + comentario
    + data
  }

  class Ticket {
    + Usuario_Solicitante
    + Usuario_Reportado
    + Motivo_do_Reporte
    + Transação
    + Anuncio
    + Identificador
    + status
    + anexos
  }

  class TicketSuporte {
    + descrição_da_solução
    + relato_do_problema
  }

  class TicketDeConduta {
    + penalidade_para_acusado
    + referências_de_denuncia
    + item_de_conduta_violado
    + foi_indeferida
  }
  
  class Iten {
    + titulo
    + condiçõe_de_uso
    + é_troca_ou_venda
    + descrição_de_valor
    + descição
    + imagens_inlustrativas
    + videos_inlustrativas
  }

  class Catalogo {
    + quantidade_de_itens
  }

  class Usuario {
    + email
    + senha
    + nome
    + sobre_nome
    + data_nascimento
    + raio_de_atuação
  }

  class Fornecedor {
    + pontuação
  }

  class Consumidor {
    + pontuação
  }

  class Mediador{

  }

  class Favoritos{

  }

  Class CanalDeComunicação{
    + data_criação
    + esta_ativo
  }

  class Mensagen {
    + remetente
    + destinatario
    + data_envio
    + data_recebimento
    + ja_foi_lida
    + conteudo
  }

  Ticket <|- - TicketSuporte
  Ticket <|- - TicketDeConduta

  Usuario <|- - Fornecedor
  Usuario <|- - Consumidor
  Usuario <|- - Mediador
  
  Catalogo  - -* Iten
  Favoritos - -* Usuario
  CanalDeComunicação - -* Mensagen
  

  (Fornecedor, Catalogo)   ... Transação
  (Fornecedor, Consumidor) ... CanalDeComunicação
  (Usuario, Transação)     ... Avaliação

  Usuario "1..1" - "1..1" Favoritos
  Usuario "1..*" - "1..1" TicketDeConduta

  Mediador  "*..1" - "1..*"  TicketSuporte
  Mediador  "*..1" - "1..*"  TicketDeConduta

  Transação "0..1" - "1..1"  TicketSuporte
  Transação "1..*" - "*..1" Iten

  Fornecedor "1..*" - "1..1" Catalogo
@enduml

PlantUML version 1.2019.11(Sun Sep 22 10:02:15 UTC 2019)
(GPL source distribution)
Java Runtime: Java(TM) SE Runtime Environment
JVM: Java HotSpot(TM) 64-Bit Server VM
Java Version: 1.7.0_25-b15
Operating System: Linux
Default Encoding: UTF-8
Language: en
Country: US
--></g></svg>